<?xml version="1.0" encoding="UTF-8"?>
<svg version="1.1" xmlns="http://www.w3.org/2000/svg" width="1080" height="1920">
<path d="M0 0 C11.35406463 8.01203001 13.68299294 21.02066929 16.16162109 33.90136719 C17.33611959 39.78454773 19.10017492 45.06945533 21.63671875 50.52734375 C23.43781945 54.55136427 23.82470822 57.9114357 23.8125 62.3125 C23.81507813 63.23933594 23.81765625 64.16617188 23.8203125 65.12109375 C23.6875 67.875 23.6875 67.875 22.98828125 70.51171875 C22.4123952 72.89962988 22.4123952 72.89962988 23.91015625 74.5859375 C24.51730469 75.13507813 25.12445313 75.68421875 25.75 76.25 C29.58379491 80.30222331 31.23496469 84.34971746 33.14160156 89.54272461 C36.65356465 98.8129096 41.78730683 107.28522965 46.6875 115.875 C48.01554677 118.20684683 49.34301807 120.53899067 50.66674805 122.87329102 C51.45497513 124.26069173 52.24789754 125.64543846 53.04614258 127.02709961 C55.6875 131.65419289 55.6875 131.65419289 55.6875 133.875 C56.49574219 133.64683594 57.30398438 133.41867187 58.13671875 133.18359375 C59.20535156 132.89613281 60.27398437 132.60867188 61.375 132.3125 C62.43074219 132.02246094 63.48648438 131.73242188 64.57421875 131.43359375 C69.66403567 130.52036436 69.66403567 130.52036436 72.6875 131.875 C75.07443714 136.25828457 76.15729578 140.49272785 77.1875 145.375 C81.11167505 162.38396452 88.03936565 178.94425491 94.1875 195.25 C94.6309375 196.42820312 95.074375 197.60640625 95.53125 198.8203125 C96.27189091 200.77700571 97.02111513 202.73048452 97.78125 204.6796875 C99.85970583 210.28793468 99.85970583 210.28793468 99.0859375 212.92578125 C97.19367234 215.56332404 95.23855239 216.42627308 92.3125 217.8125 C91.35601562 218.27527344 90.39953125 218.73804688 89.4140625 219.21484375 C85.35892654 221.06067382 81.23277709 222.73695359 77.11669922 224.44116211 C70.69610646 227.12577989 64.31991638 229.91363912 57.9375 232.6875 C56.54690963 233.29109542 55.15628483 233.8946115 53.765625 234.49804688 C50.40585388 235.95612007 47.04654514 237.41525495 43.6875 238.875 C43.68339111 239.42961914 43.67928223 239.98423828 43.67504883 240.55566406 C43.64205819 243.079844 43.57141622 245.60162696 43.5 248.125 C43.49129883 249.43404297 43.49129883 249.43404297 43.48242188 250.76953125 C43.26060449 257.22688184 43.26060449 257.22688184 40.44921875 260.40625 C37.76951563 261.83138207 35.66780065 262.62207427 32.6875 263.125 C31.45 263.34929687 31.45 263.34929687 30.1875 263.578125 C27.66127962 263.87811367 25.22875639 263.89511828 22.6875 263.875 C22.78261738 267.90975552 22.88900898 271.94405754 23.00488281 275.97827148 C23.0426487 277.34440444 23.07758168 278.7106193 23.109375 280.0769043 C23.37310094 291.28113588 23.92031298 302.23748211 27.6875 312.875 C28.3475 312.875 29.0075 312.875 29.6875 312.875 C31.15917969 314.37231445 31.15917969 314.37231445 32.859375 316.42578125 C35.22928217 319.21783579 37.63345113 321.87175226 40.265625 324.41796875 C49.02828108 333.03300596 54.68776549 341.66873593 60.05859375 352.6796875 C62.89298918 358.45096498 66.32691258 363.71348711 69.91503906 369.03686523 C72.58195138 373.03290744 74.74519608 376.96168479 76.6875 381.375 C79.34365944 387.01741963 82.99396527 389.88184854 87.9140625 393.58203125 C92.35043255 397.24984705 96.14207044 401.6898657 98.6875 406.875 C98.390625 409.703125 98.390625 409.703125 97.6875 411.875 C97.0275 411.875 96.3675 411.875 95.6875 411.875 C95.43226563 412.45507812 95.17703125 413.03515625 94.9140625 413.6328125 C91.48069716 419.90909182 85.20053063 424.35880889 79.48046875 428.44140625 C77.41748567 429.97602495 77.41748567 429.97602495 75.3125 432.9375 C70.05406783 438.82193601 63.81793216 441.03875619 56.0625 441.8125 C50.84710621 442.04703842 46.62633856 441.52127952 41.6875 439.875 C41 436.8125 41 436.8125 41.6875 432.875 C44.34947893 430.72880681 47.09548942 429.10675779 50.0859375 427.453125 C52.91997899 425.98529414 52.91997899 425.98529414 54.6875 422.875 C55.07333086 420.0741242 55.07333086 420.0741242 55.1875 417 C55.34914869 413.77510868 55.48615264 411.33666074 56.78125 408.3671875 C57.99570688 405.02743108 57.67588444 403.28556262 56.6875 399.875 C55.35357348 397.32162843 53.77393017 394.98425723 52.125 392.625 C51.44727539 391.6354834 51.44727539 391.6354834 50.75585938 390.62597656 C44.11871506 381.03534984 36.56968854 372.45495605 28.6875 363.875 C24.36698402 359.08599434 20.28581958 354.17161291 16.36328125 349.05078125 C15.81027344 348.33277344 15.25726563 347.61476563 14.6875 346.875 C13.74197266 345.62009766 13.74197266 345.62009766 12.77734375 344.33984375 C10.66688222 341.85068258 8.54845907 340.07074657 5.9375 338.125 C-4.47108177 329.95779424 -10.29910544 321.60307905 -13.6015625 308.87890625 C-14.12014027 306.68225461 -14.12014027 306.68225461 -16.3125 305.875 C-18.92111638 314.63766173 -19.79867482 322.81966019 -19.9375 331.9375 C-20.22779037 345.3271433 -20.95226148 356.95158241 -25.125 369.75 C-25.46853516 370.83152344 -25.81207031 371.91304687 -26.16601562 373.02734375 C-26.85930933 375.20998321 -27.55624385 377.39146959 -28.25683594 379.57177734 C-31.1604405 388.65729302 -33.88038028 397.7734027 -36.3828125 406.9765625 C-37.3125 409.875 -37.3125 409.875 -39.3125 412.875 C-39.58432402 416.00097624 -39.56985349 418.24399939 -38.37890625 421.1640625 C-37.17387018 424.22741427 -36.55697152 427.13168284 -36 430.375 C-35.79761719 431.4784375 -35.59523438 432.581875 -35.38671875 433.71875 C-35.29901416 437.44850302 -35.99705154 438.98983623 -38.3125 441.875 C-41.21861621 442.8437054 -43.13311679 443.01759898 -46.16015625 443.05200195 C-47.1454834 443.06483719 -48.13081055 443.07767242 -49.14599609 443.09089661 C-50.74435303 443.10197701 -50.74435303 443.10197701 -52.375 443.11328125 C-54.02749756 443.12538887 -54.02749756 443.12538887 -55.71337891 443.13774109 C-58.05027697 443.15158287 -60.38719526 443.1623046 -62.72412109 443.17016602 C-66.2709081 443.18729909 -69.81674348 443.23117623 -73.36328125 443.27539062 C-75.638014 443.28552492 -77.91275466 443.29403871 -80.1875 443.30078125 C-81.23687744 443.31828934 -82.28625488 443.33579742 -83.36743164 443.35383606 C-90.35110255 443.33361805 -97.21124941 442.54771447 -103.3125 438.875 C-104.18701172 436.90010071 -104.18701172 436.90010071 -104.3125 434.875 C-102.59974273 431.08890497 -101.11435069 429.43437978 -97.3125 427.875 C-95.89974991 427.67787208 -94.48214958 427.51398667 -93.0625 427.375 C-87.6749082 426.38740866 -83.57507154 423.93575351 -79 421.0625 C-78.3184082 420.63582031 -77.63681641 420.20914062 -76.93457031 419.76953125 C-67.8993582 413.90308757 -64.56285002 408.32743306 -62.3125 397.875 C-60.7100194 389.58472844 -59.51268925 381.23103459 -58.3125 372.875 C-58.12623047 371.60591797 -57.93996094 370.33683594 -57.74804688 369.02929688 C-57.17269127 365.08372264 -56.61455191 361.13639632 -56.0625 357.1875 C-55.8871875 355.97199463 -55.711875 354.75648926 -55.53125 353.50415039 C-54.18394035 343.55076455 -53.79525362 333.75362608 -54.7421875 323.7421875 C-56.29397625 307.29257058 -53.37128367 291.9663575 -50.35531616 275.86709595 C-49.31925176 270.22105441 -48.6590077 264.602477 -48.3125 258.875 C-49.3025 258.545 -50.2925 258.215 -51.3125 257.875 C-51.3125 256.225 -51.3125 254.575 -51.3125 252.875 C-52.24316284 252.9361499 -52.24316284 252.9361499 -53.19262695 252.99853516 C-56.00283771 253.17688608 -58.81376553 253.33862451 -61.625 253.5 C-62.60146484 253.56445312 -63.57792969 253.62890625 -64.58398438 253.6953125 C-65.52177734 253.746875 -66.45957031 253.7984375 -67.42578125 253.8515625 C-68.72189331 253.93011475 -68.72189331 253.93011475 -70.04418945 254.01025391 C-72.3125 253.875 -72.3125 253.875 -75.3125 251.875 C-76.17182022 249.29703933 -76.53868046 247.37170946 -76.77734375 244.70507812 C-76.85412354 243.86569702 -76.93090332 243.02631592 -77.01000977 242.16149902 C-77.08920654 241.25226685 -77.16840332 240.34303467 -77.25 239.40625 C-77.33499756 238.45673462 -77.41999512 237.50721924 -77.50756836 236.52893066 C-77.68749231 234.50821458 -77.86558143 232.48733442 -78.04199219 230.46630859 C-78.30664636 227.44189421 -78.57862273 224.4182077 -78.8515625 221.39453125 C-79.75093516 211.2861478 -80.5467287 201.19093766 -80.97094727 191.0501709 C-81.1674299 186.60117095 -81.64118066 182.28386181 -82.3125 177.875 C-82.42154409 175.77273146 -82.4866261 173.6675522 -82.5 171.5625 C-82.51417969 170.53511719 -82.52835937 169.50773437 -82.54296875 168.44921875 C-82.3125 165.875 -82.3125 165.875 -80.3125 163.875 C-78.06933594 163.40429688 -78.06933594 163.40429688 -75.296875 163.09375 C-74.29269531 162.97386719 -73.28851563 162.85398437 -72.25390625 162.73046875 C-71.20074219 162.61316406 -70.14757812 162.49585938 -69.0625 162.375 C-66.99413151 162.14118443 -64.92638832 161.90175733 -62.859375 161.65625 C-61.93995117 161.55376953 -61.02052734 161.45128906 -60.07324219 161.34570312 C-57.01465139 160.82421718 -54.22950875 159.92069986 -51.3125 158.875 C-51.29268066 157.98941406 -51.27286133 157.10382813 -51.25244141 156.19140625 C-50.25586515 113.86169198 -50.25586515 113.86169198 -45.3359375 104.1328125 C-41.30436342 95.23872923 -40.88878959 86.39499131 -42.3125 76.875 C-41.51070313 76.58625 -40.70890625 76.2975 -39.8828125 76 C-36.83707338 74.66691054 -36.59840229 73.81420524 -35.3125 70.875 C-34.3225 70.215 -33.3325 69.555 -32.3125 68.875 C-31.57906572 65.80943402 -31.57906572 65.80943402 -31.3125 62.875 C-32.859375 62.9678125 -32.859375 62.9678125 -34.4375 63.0625 C-38.79864532 62.85147684 -40.87627478 62.59201529 -44.3125 59.875 C-46.20023859 54.75371874 -46.59803488 49.30016265 -46.3125 43.875 C-47.3025 43.545 -48.2925 43.215 -49.3125 42.875 C-50.1875 41.125 -50.1875 41.125 -50.3125 38.875 C-49.16463059 36.63143706 -48.1029233 34.6654233 -46.3125 32.875 C-46.08656226 31.52271531 -45.9184956 30.16061907 -45.77734375 28.796875 C-45.69033203 27.96542969 -45.60332031 27.13398437 -45.51367188 26.27734375 C-45.3831543 24.96443359 -45.3831543 24.96443359 -45.25 23.625 C-45.15912109 22.76519531 -45.06824219 21.90539062 -44.97460938 21.01953125 C-44.62623244 17.61958187 -44.29890774 14.34207936 -44.3984375 10.921875 C-44.3125 8.875 -44.3125 8.875 -42 6.375 C-31.23532303 -1.7434676 -12.62625052 -6.67693248 0 0 Z M36.6875 110.875 C36.5528094 117.82466093 36.93034996 124.59356383 37.6875 131.5 C37.78289062 132.40878906 37.87828125 133.31757812 37.9765625 134.25390625 C38.20893315 136.46142747 38.44754708 138.66829008 38.6875 140.875 C41.9875 139.555 45.2875 138.235 48.6875 136.875 C47.67536922 133.50123074 46.48834896 130.37218949 44.875 127.25 C42.13711198 121.93953041 39.93664507 116.4056846 37.6875 110.875 C37.3575 110.875 37.0275 110.875 36.6875 110.875 Z " fill="#060606" transform="translate(346.3125,884.125)"/>
<path d="M0 0 C0.66 0 1.32 0 2 0 C1.64096222 4.09064482 1.26803304 8.17977919 0.88305664 12.26806641 C0.75437852 13.65444869 0.62927956 15.04116862 0.50805664 16.42822266 C0.33155842 18.44015708 0.14153673 20.45046045 -0.05078125 22.4609375 C-0.16075439 23.66540527 -0.27072754 24.86987305 -0.3840332 26.11083984 C-0.87742219 29.22605449 -1.53646108 31.73669123 -2.52954102 34.69165039 C-4.38244226 40.62144025 -4.45832607 46.29826992 -4.4765625 52.47265625 C-4.49214203 53.63574814 -4.50772156 54.79884003 -4.52377319 55.99717712 C-4.57096302 59.68561162 -4.59893359 63.37386116 -4.625 67.0625 C-4.66166747 70.75457662 -4.70244669 74.44655265 -4.74765015 78.13853455 C-4.77455955 80.42685528 -4.79604441 82.71524853 -4.81118774 85.00367737 C-4.88419847 92.46090985 -5.03542356 99.7987094 -7.05859375 107.015625 C-8.20397098 111.29990905 -8.1917159 115.34099682 -8.0625 119.75 C-7.87946459 127.54595267 -7.87946459 127.54595267 -8.54467773 130.05175781 C-9.19122441 132.1744701 -9.19122441 132.1744701 -8.3125 135 C-8.209375 135.99 -8.10625 136.98 -8 138 C-9.9375 140.375 -9.9375 140.375 -12 142 C-11.34 142 -10.68 142 -10 142 C-10 142.66 -10 143.32 -10 144 C-10.66 144.33 -11.32 144.66 -12 145 C-13.13350534 147.01669827 -13.13350534 147.01669827 -14 149 C-14.66 149 -15.32 149 -16 149 C-16.061875 149.721875 -16.12375 150.44375 -16.1875 151.1875 C-17.24456647 154.84657625 -19.20550071 156.49211602 -22 159 C-22.66 158.67 -23.32 158.34 -24 158 C-23.2575 157.443125 -22.515 156.88625 -21.75 156.3125 C-12.67023399 146.92581233 -12.75199455 127.19784885 -11 115 C-10.7205957 113.09637695 -10.7205957 113.09637695 -10.43554688 111.15429688 C-9.86019127 107.20872264 -9.30205191 103.26139632 -8.75 99.3125 C-8.5746875 98.09699463 -8.399375 96.88148926 -8.21875 95.62915039 C-6.87144035 85.67576455 -6.48275362 75.87862608 -7.4296875 65.8671875 C-9.04267991 48.78854458 -5.89767111 32.70868664 -2.74365234 15.99462891 C-1.74376281 10.67740549 -0.8620536 5.34111081 0 0 Z " fill="#858585" transform="translate(299,1142)"/>
<path d="M0 0 C2.55665395 2.30995927 4.03075998 4.64352709 5.625 7.6875 C7.50176313 11.22301843 9.40580984 14.73515929 11.390625 18.2109375 C11.80103027 18.93063721 12.21143555 19.65033691 12.63427734 20.3918457 C13.4545753 21.8269636 14.27777147 23.26042918 15.10400391 24.69213867 C18 29.77907819 18 29.77907819 18 32 C19.98 31.67 21.96 31.34 24 31 C22.8125 32.5625 22.8125 32.5625 21 34 C17.98928361 33.84946418 16.47931185 33.41319987 14.1875 31.4375 C13.795625 30.963125 13.40375 30.48875 13 30 C13 31.98 13 33.96 13 36 C8.60748167 38.02055843 4.84659077 39.40895235 0 40 C0 37.69 0 35.38 0 33 C0.33 33 0.66 33 1 33 C1.33 34.65 1.66 36.3 2 38 C4.97 37.01 7.94 36.02 11 35 C10.54109375 34.09378906 10.0821875 33.18757812 9.609375 32.25390625 C8.98947235 31.02349341 8.36968705 29.79302144 7.75 28.5625 C7.44964844 27.97017578 7.14929688 27.37785156 6.83984375 26.76757812 C4.39195981 21.89785157 2.22097779 16.99720003 0 12 C0 18.6 0 25.2 0 32 C-0.33 32 -0.66 32 -1 32 C-2.6950751 22.1776452 -3.25068829 12.94396878 -3 3 C-2.34 3 -1.68 3 -1 3 C-0.67 2.01 -0.34 1.02 0 0 Z " fill="#3D3C3D" transform="translate(384,986)"/>
<path d="M0 0 C2.64752004 2.57784846 4.94432065 4.91648098 7 8 C6.625 10.6875 6.625 10.6875 6 13 C5.34 13 4.68 13 4 13 C3.61714844 13.87011719 3.61714844 13.87011719 3.2265625 14.7578125 C-0.20680284 21.03409182 -6.48696937 25.48380889 -12.20703125 29.56640625 C-14.27001433 31.10102495 -14.27001433 31.10102495 -16.375 34.0625 C-21.63343217 39.94693601 -27.86956784 42.16375619 -35.625 42.9375 C-40.84039379 43.17203842 -45.06116144 42.64627952 -50 41 C-50 38.69 -50 36.38 -50 34 C-48.02 33.505 -48.02 33.505 -46 33 C-46 33.66 -46 34.32 -46 35 C-46.99 35 -47.98 35 -49 35 C-49 36.65 -49 38.3 -49 40 C-45.51922273 40.00633939 -42.04248751 39.94615629 -38.5625 39.875 C-37.10166992 39.87886719 -37.10166992 39.87886719 -35.61132812 39.8828125 C-28.26092129 39.6861461 -23.56899851 37.83091107 -18 33 C-16.81275379 31.59405055 -15.62426129 30.18651592 -14.51953125 28.71484375 C-11.55436826 25.36855442 -7.91499379 22.72938613 -4.42578125 19.953125 C-1.21785466 17.37025335 0.19624036 16.01879819 1 12 C2.32 12 3.64 12 5 12 C3.73053486 7.17557816 3.73053486 7.17557816 0 4 C0 2.68 0 1.36 0 0 Z " fill="#B4B4B3" transform="translate(438,1283)"/>
<path d="M0 0 C0.33 0 0.66 0 1 0 C1.72040548 2.65995869 2.37632599 5.31597435 3 8 C3.144375 8.61665527 3.28875 9.23331055 3.4375 9.86865234 C3.91829746 11.97063873 4.36781794 14.0776 4.8125 16.1875 C5.05286987 17.22100586 5.05286987 17.22100586 5.2980957 18.27539062 C5.99119234 21.69494325 6.13538288 23.68012058 4.76171875 26.92578125 C3 29 3 29 0 30 C-1.67220971 30.08754798 -3.34772199 30.11765995 -5.0222168 30.11352539 C-6.04304855 30.11344986 -7.06388031 30.11337433 -8.11564636 30.11329651 C-9.21572525 30.10813522 -10.31580414 30.10297394 -11.44921875 30.09765625 C-12.5769722 30.0962413 -13.70472565 30.09482635 -14.86665344 30.09336853 C-18.47362912 30.0877647 -22.08054304 30.07521153 -25.6875 30.0625 C-28.13085848 30.05748549 -30.57421793 30.0529225 -33.01757812 30.04882812 C-39.01173987 30.03779403 -45.00586552 30.02105215 -51 30 C-51 29.67 -51 29.34 -51 29 C-33.84 28.34 -16.68 27.68 1 27 C1 26.01 1 25.02 1 24 C1.66 24 2.32 24 3 24 C2.690625 23.29875 2.38125 22.5975 2.0625 21.875 C0.13389517 16.65642223 -0.11891401 11.65357275 -0.0625 6.125 C-0.05347656 4.97257812 -0.04445313 3.82015625 -0.03515625 2.6328125 C-0.02355469 1.76398438 -0.01195312 0.89515625 0 0 Z " fill="#868686" transform="translate(305,1297)"/>
<path d="M0 0 C0.99 0.33 1.98 0.66 3 1 C-2.96720543 4.3474567 -8.25223119 5.05767324 -15 5 C-14.90488262 9.03475552 -14.79849102 13.06905754 -14.68261719 17.10327148 C-14.6448513 18.46940444 -14.60991832 19.8356193 -14.578125 21.2019043 C-14.33315192 31.60943256 -13.68584814 41.89874471 -11 52 C-14.15335894 49.55299347 -14.94371901 48.33912904 -15.609375 44.328125 C-15.67532564 42.96954185 -15.72172254 41.60988898 -15.75 40.25 C-15.77964844 39.55261719 -15.80929687 38.85523438 -15.83984375 38.13671875 C-15.91018458 36.42509187 -15.95739946 34.71254185 -16 33 C-16.66 33 -17.32 33 -18 33 C-18.02465746 28.8882744 -18.04283959 24.77657722 -18.05493164 20.66479492 C-18.0599708 19.26504772 -18.06680216 17.8653058 -18.07543945 16.46557617 C-18.0875232 14.45754223 -18.09269807 12.44947043 -18.09765625 10.44140625 C-18.10289307 9.23170166 -18.10812988 8.02199707 -18.11352539 6.77563477 C-18 4 -18 4 -17 3 C-13.73577665 2.7131854 -10.47135509 2.55112395 -7.19921875 2.37890625 C-4.20135658 2.02384809 -2.61983234 1.335941 0 0 Z " fill="#979796" transform="translate(384,1143)"/>
<path d="M0 0 C0.33 0.99 0.66 1.98 1 3 C0.53851563 3.90363281 0.07703125 4.80726563 -0.3984375 5.73828125 C-3.18780138 11.77555631 -2.54160838 18.66673881 -2.625 25.1875 C-2.67325587 27.88951134 -2.73052954 30.59114053 -2.7890625 33.29296875 C-2.80662598 34.4843042 -2.82418945 35.67563965 -2.84228516 36.90307617 C-2.97368454 39.48326385 -3.31103009 41.53797017 -4 44 C-4.22288501 46.58656673 -4.41314385 49.15952778 -4.5625 51.75 C-4.60568359 52.44738281 -4.64886719 53.14476562 -4.69335938 53.86328125 C-4.79889596 55.57531922 -4.8998991 57.28763561 -5 59 C-6.32 58.67 -7.64 58.34 -9 58 C-8.01 57.505 -8.01 57.505 -7 57 C-6.98018066 56.11441406 -6.96036133 55.22882813 -6.93994141 54.31640625 C-5.92138918 11.0532598 -5.92138918 11.0532598 0 0 Z " fill="#949493" transform="translate(302,986)"/>
<path d="M0 0 C0.33 0 0.66 0 1 0 C2.152 7.68 2.152 7.68 1 12 C1.3403125 13.485 1.3403125 13.485 1.6875 15 C1.790625 15.99 1.89375 16.98 2 18 C0.0625 20.375 0.0625 20.375 -2 22 C-1.34 22 -0.68 22 0 22 C0 22.66 0 23.32 0 24 C-0.66 24.33 -1.32 24.66 -2 25 C-3.13350534 27.01669827 -3.13350534 27.01669827 -4 29 C-4.66 29 -5.32 29 -6 29 C-6.061875 29.721875 -6.12375 30.44375 -6.1875 31.1875 C-7.24456647 34.84657625 -9.20550071 36.49211602 -12 39 C-12.66 38.67 -13.32 38.34 -14 38 C-13.2575 37.443125 -12.515 36.88625 -11.75 36.3125 C-6.4632441 31.10084007 -5.31504379 22.04863472 -4 15 C-3.34 15 -2.68 15 -2 15 C-1.34 10.05 -0.68 5.1 0 0 Z " fill="#676867" transform="translate(289,1262)"/>
<path d="M0 0 C0.33 0 0.66 0 1 0 C0.88035491 4.49842457 0.75604145 8.99669058 0.62768555 13.49487305 C0.58478339 15.02022942 0.54308432 16.54562019 0.50268555 18.07104492 C-0.13504695 42.06080936 -0.13504695 42.06080936 -2.5625 50.1875 C-2.83191406 51.10917969 -3.10132813 52.03085938 -3.37890625 52.98046875 C-3.58386719 53.64691406 -3.78882813 54.31335937 -4 55 C-4.33 55 -4.66 55 -5 55 C-5.05498128 53.62546802 -5.09322822 52.25026422 -5.125 50.875 C-5.14820313 50.10929687 -5.17140625 49.34359375 -5.1953125 48.5546875 C-5 46 -5 46 -4.00927734 43.34448242 C-2.84670917 39.49203409 -2.68549645 35.91800332 -2.65625 31.93359375 C-2.6416272 31.17708023 -2.62700439 30.42056671 -2.61193848 29.64112854 C-2.55009676 26.42799108 -2.51012448 23.21467053 -2.46826172 20.0012207 C-2.43441624 17.64514622 -2.38934478 15.28946547 -2.34375 12.93359375 C-2.3384729 12.21264023 -2.3331958 11.49168671 -2.32775879 10.74888611 C-2.24877891 6.73944148 -1.76489172 3.61476949 0 0 Z " fill="#B1B3B0" transform="translate(326,1197)"/>
<path d="M0 0 C3.0916909 2.52956528 3.90931332 5.22454612 5 9 C4.01 8.34 3.02 7.68 2 7 C2 6.34 2 5.68 2 5 C1.34 5 0.68 5 0 5 C0.44472656 6.04800781 0.88945312 7.09601562 1.34765625 8.17578125 C1.9197696 9.55448063 2.49135691 10.93339839 3.0625 12.3125 C3.35705078 13.00279297 3.65160156 13.69308594 3.95507812 14.40429688 C6.11328125 19.66015625 6.11328125 19.66015625 5 23 C3.35 19.37 1.7 15.74 0 12 C0 18.6 0 25.2 0 32 C-0.33 32 -0.66 32 -1 32 C-2.6950751 22.1776452 -3.25068829 12.94396878 -3 3 C-2.34 3 -1.68 3 -1 3 C-0.67 2.01 -0.34 1.02 0 0 Z " fill="#9C9C9B" transform="translate(384,986)"/>
<path d="M0 0 C2.46508211 1.65832797 4.50854134 3.54560427 6.5625 5.6875 C6.2325 6.3475 5.9025 7.0075 5.5625 7.6875 C4.881875 7.089375 4.20125 6.49125 3.5 5.875 C-5.2521723 -0.64257512 -14.23806094 -0.13907165 -24.83984375 1.078125 C-26.12568359 1.37976563 -26.12568359 1.37976563 -27.4375 1.6875 C-27.7675 2.3475 -28.0975 3.0075 -28.4375 3.6875 C-30.72265625 4.1015625 -30.72265625 4.1015625 -33.5 4.3125 C-34.41910156 4.38726563 -35.33820313 4.46203125 -36.28515625 4.5390625 C-37.35056641 4.61253906 -37.35056641 4.61253906 -38.4375 4.6875 C-28.55352894 -3.18808425 -11.51122915 -6.21719414 0 0 Z " fill="#969696" transform="translate(346.4375,884.3125)"/>
<path d="M0 0 C-5.32348406 2.3561644 -10.65984733 4.68188827 -16 7 C-17.08152344 7.47099121 -18.16304688 7.94198242 -19.27734375 8.42724609 C-22.80625487 9.96007998 -26.34007017 11.48110384 -29.875 13 C-31.61402588 13.7576062 -31.61402588 13.7576062 -33.38818359 14.53051758 C-34.47437988 14.99482178 -35.56057617 15.45912598 -36.6796875 15.9375 C-38.14510986 16.56978516 -38.14510986 16.56978516 -39.64013672 17.21484375 C-42 18 -42 18 -44 17 C-38.3867883 14.14066043 -32.75162495 11.42133993 -26.97265625 8.9140625 C-24.80055499 7.95256688 -24.80055499 7.95256688 -22.125 6.25 C-20 5 -20 5 -17 5 C-17 4.01 -17 3.02 -17 2 C-15.68 2.33 -14.36 2.66 -13 3 C-13 2.34 -13 1.68 -13 1 C-11.39796533 0.63631108 -9.79325797 0.28438048 -8.1875 -0.0625 C-7.29417969 -0.25972656 -6.40085937 -0.45695312 -5.48046875 -0.66015625 C-3 -1 -3 -1 0 0 Z " fill="#939393" transform="translate(434,1104)"/>
<path d="M0 0 C0.66 0.33 1.32 0.66 2 1 C-2.59797584 7.89696377 -12.26369776 10.80828961 -20 13 C-20.69738281 13.20496094 -21.39476562 13.40992188 -22.11328125 13.62109375 C-23.73856716 14.09337122 -25.36873714 14.54879963 -27 15 C-27.33 16.65 -27.66 18.3 -28 20 C-25.36 21.32 -22.72 22.64 -20 24 C-23 25 -23 25 -26.625 23.8125 C-30 22 -30 22 -31.125 20.125 C-30.94431543 17.05336233 -29.85244473 15.42734137 -28 13 C-25.1783951 11.29265946 -22.87128036 10.78650284 -19.625 10.4375 C-13.73754042 9.40060413 -9.45308561 6.38588514 -4.64697266 3.01147461 C-3.13163298 1.9575378 -1.56902848 0.97220716 0 0 Z " fill="#B0B0AF" transform="translate(273,1301)"/>
<path d="M0 0 C0.66 0 1.32 0 2 0 C5.32511278 3.4873134 7.72265368 6.00776615 8 11 C7.67 11.66 7.34 12.32 7 13 C7.825 13.763125 8.65 14.52625 9.5 15.3125 C12 18 12 18 12 21 C9.69 20.34 7.38 19.68 5 19 C4.9175 18.05125 4.835 17.1025 4.75 16.125 C4.16217025 11.83472015 2.54265934 8.09379555 0.83984375 4.13671875 C0 2 0 2 0 0 Z " fill="#171718" transform="translate(384,991)"/>
<path d="M0 0 C1.31953852 3.95861556 0.09622827 6.52169962 -1.1875 10.3125 C-1.65939514 11.74939603 -2.12941106 13.18691042 -2.59765625 14.625 C-2.9536792 15.71554687 -2.9536792 15.71554687 -3.31689453 16.828125 C-4.70535824 21.24262578 -5.84324591 25.72911812 -7.0078125 30.20703125 C-7.9808094 32.94597923 -8.76700212 34.20224747 -11 36 C-9.933892 31.64853876 -8.75289302 27.32778462 -7.58618164 23.00244141 C-6.21490475 17.888349 -4.97335535 12.75140199 -3.80859375 7.5859375 C-2.91741027 4.73587245 -1.62546099 2.49447477 0 0 Z " fill="#BCBCBC" transform="translate(317,1261)"/>
<path d="M0 0 C1 1 1 1 1.0625 3.5625 C1.041875 4.366875 1.02125 5.17125 1 6 C1.99 6 2.98 6 4 6 C4 6.66 4 7.32 4 8 C2.0625 8.5625 2.0625 8.5625 0 9 C-0.33 8.67 -0.66 8.34 -1 8 C-1 6.02 -1 4.04 -1 2 C-8.59 2 -16.18 2 -24 2 C-24 1.67 -24 1.34 -24 1 C-16.02620132 -0.11912964 -8.04296962 -0.34880225 0 0 Z " fill="#383938" transform="translate(297,1134)"/>
<path d="M0 0 C4.01178766 4.01178766 4.13634588 9.20997076 4.1875 14.625 C4.16706836 17.47725676 4.02805767 19.88760429 3.3359375 22.66015625 C3.22507812 23.43230469 3.11421875 24.20445312 3 25 C5.333492 27.83411155 5.333492 27.83411155 8 30 C7.67 30.66 7.34 31.32 7 32 C5.79794536 30.93283928 4.61367667 29.84561663 3.4375 28.75 C2.77621094 28.14671875 2.11492187 27.5434375 1.43359375 26.921875 C0.96050781 26.28765625 0.48742187 25.6534375 0 25 C0.27734375 23.2265625 0.27734375 23.2265625 1 21 C1.094282 18.54312194 1.12990755 16.08368152 1.125 13.625 C1.12757813 12.33851563 1.13015625 11.05203125 1.1328125 9.7265625 C1.01363474 6.3825749 0.63956128 3.27902051 0 0 Z " fill="#9A9A98" transform="translate(366,932)"/>
<path d="M0 0 C0 0.66 0 1.32 0 2 C-0.99 2 -1.98 2 -3 2 C-3 3.65 -3 5.3 -3 7 C3.6 7 10.2 7 17 7 C17 7.66 17 8.32 17 9 C9.52256339 9.84349132 3.19701539 10.39900513 -4 8 C-4 5.69 -4 3.38 -4 1 C-2 0 -2 0 0 0 Z " fill="#828382" transform="translate(392,1316)"/>
<path d="M0 0 C4.05969337 1.54434805 5.95306577 4.17597537 8.5625 7.5625 C11.57852782 11.74776808 11.57852782 11.74776808 16 14 C16 14.66 16 15.32 16 16 C16.66 16 17.32 16 18 16 C18.66 18.97 19.32 21.94 20 25 C17.24401966 22.24401966 15.10447664 19.51480517 12.8125 16.375 C9.26490749 11.55783571 5.4945937 7.03801073 1.43359375 2.64453125 C0 1 0 1 0 0 Z " fill="#B5B5B5" transform="translate(378,1250)"/>
<path d="M0 0 C2 1 2 1 2.703125 2.70703125 C2.88359375 3.40183594 3.0640625 4.09664062 3.25 4.8125 C3.44078125 5.49957031 3.6315625 6.18664063 3.828125 6.89453125 C4.04903046 9.60062315 3.53375635 10.77328144 2 13 C0.125 14.30078125 0.125 14.30078125 -2 15.3125 C-2.70125 15.65925781 -3.4025 16.00601562 -4.125 16.36328125 C-5.053125 16.67845703 -5.053125 16.67845703 -6 17 C-6.66 16.67 -7.32 16.34 -8 16 C-6.68 15.67 -5.36 15.34 -4 15 C-4 13.68 -4 12.36 -4 11 C-2.35 10.67 -0.7 10.34 1 10 C0.67 6.7 0.34 3.4 0 0 Z " fill="#626162" transform="translate(442,1086)"/>
<path d="M0 0 C2.98533712 4.47800568 4.42127794 9.43867954 6.1875 14.5 C6.56841797 15.55832031 6.94933594 16.61664062 7.34179688 17.70703125 C7.69693359 18.72152344 8.05207031 19.73601562 8.41796875 20.78125 C8.74563232 21.71001953 9.0732959 22.63878906 9.41088867 23.59570312 C10 26 10 26 9 29 C5.91055309 23.6220739 3.99975501 18.17104036 2.25 12.25 C2.02739502 11.50500244 1.80479004 10.76000488 1.57543945 9.99243164 C0.57078533 6.49841094 0 3.66318836 0 0 Z " fill="#C3C4C0" transform="translate(424,1036)"/>
<path d="M0 0 C4.20782635 4.69334478 7.45213641 10.24646076 10 16 C9.67 16.66 9.34 17.32 9 18 C8.67 17.01 8.34 16.02 8 15 C7.04867188 14.80857422 7.04867188 14.80857422 6.078125 14.61328125 C4 14 4 14 2.734375 11.85546875 C2.40953125 10.97503906 2.0846875 10.09460937 1.75 9.1875 C1.41484375 8.31480469 1.0796875 7.44210937 0.734375 6.54296875 C0 4 0 4 0 0 Z " fill="#7C7D7B" transform="translate(401,1229)"/>
<path d="M0 0 C0.33 0 0.66 0 1 0 C1.33 3.96 1.66 7.92 2 12 C1.01 12.495 1.01 12.495 0 13 C-0.35561725 15.55234151 -0.44379753 18.07868652 -0.55859375 20.65234375 C-0.70425781 21.42707031 -0.84992188 22.20179687 -1 23 C-1.99 23.66 -2.98 24.32 -4 25 C-3.505 23.515 -3.505 23.515 -3 22 C-2.82207122 19.96087973 -2.68085549 17.91844369 -2.5625 15.875 C-2.18133651 10.38501625 -1.3544509 5.32750688 0 0 Z " fill="#1D1D1D" transform="translate(406,1285)"/>
<path d="M0 0 C2.64752004 2.57784846 4.94432065 4.91648098 7 8 C6.625 10.6875 6.625 10.6875 6 13 C5.34 13 4.68 13 4 13 C3.67 13.99 3.34 14.98 3 16 C2.34 16 1.68 16 1 16 C1 14.68 1 13.36 1 12 C2.32 12 3.64 12 5 12 C3.73053486 7.17557816 3.73053486 7.17557816 0 4 C0 2.68 0 1.36 0 0 Z " fill="#949494" transform="translate(438,1283)"/>
<path d="M0 0 C1.65 0 3.3 0 5 0 C7.28571429 8.42857143 7.28571429 8.42857143 7 13 C5 10 5 10 4 6.375 C3.67 5.26125 3.34 4.1475 3 3 C2.34 2.67 1.68 2.34 1 2 C0.34 4.31 -0.32 6.62 -1 9 C-2.0326802 6.21176345 -2.04509293 5.1322726 -1.0625 2.25 C-0.711875 1.5075 -0.36125 0.765 0 0 Z " fill="#A9A9A9" transform="translate(329,1188)"/>
<path d="M0 0 C0.66 0 1.32 0 2 0 C2.125 7.75 2.125 7.75 1 10 C0.34 10 -0.32 10 -1 10 C-1.33 12.31 -1.66 14.62 -2 17 C-3.24659153 13.37434999 -2.78926902 10.54787577 -2.125 6.8125 C-1.94195312 5.74644531 -1.75890625 4.68039062 -1.5703125 3.58203125 C-1 1 -1 1 0 0 Z " fill="#6C6C6C" transform="translate(296,1164)"/>
<path d="M0 0 C4.15289097 3.67371124 7.23378258 8.22366459 10 13 C10 13.66 10 14.32 10 15 C5.51231364 13.50410455 3.19856176 9.9921253 1 6 C0.1875 2.5625 0.1875 2.5625 0 0 Z " fill="#9D9C9C" transform="translate(411,1247)"/>
<path d="M0 0 C1.5 1.1875 1.5 1.1875 3 3 C3.1875 5.6875 3.1875 5.6875 3 8 C1.56445975 8.50559908 0.1264798 9.0042749 -1.3125 9.5 C-2.11300781 9.7784375 -2.91351563 10.056875 -3.73828125 10.34375 C-6 11 -6 11 -9 11 C-9 8.69 -9 6.38 -9 4 C-8.67 4 -8.34 4 -8 4 C-7.67 5.65 -7.34 7.3 -7 9 C-4.03 8.01 -1.06 7.02 2 6 C1.34 4.02 0.68 2.04 0 0 Z " fill="#AFAFAF" transform="translate(393,1015)"/>
<path d="M0 0 C3.83520308 3.28731693 6.32465344 7.25147171 8 12 C7.67 12.66 7.34 13.32 7 14 C6.67386719 13.52949219 6.34773438 13.05898438 6.01171875 12.57421875 C5.57472656 11.95160156 5.13773437 11.32898438 4.6875 10.6875 C4.25824219 10.07261719 3.82898438 9.45773437 3.38671875 8.82421875 C2.04353887 6.95425238 2.04353887 6.95425238 0.3125 5.40625 C-0.120625 4.9421875 -0.55375 4.478125 -1 4 C-0.6875 1.8125 -0.6875 1.8125 0 0 Z " fill="#989898" transform="translate(391,999)"/>
<path d="M0 0 C0.66 0 1.32 0 2 0 C2.20067123 12.64228779 2.20067123 12.64228779 1 18 C0.34 18.66 -0.32 19.32 -1 20 C-1.10152799 13.2314676 -1.03026944 6.69675136 0 0 Z " fill="#444443" transform="translate(292,1227)"/>
<path d="M0 0 C0.33 0 0.66 0 1 0 C2.28267556 6.41337779 1.8069382 11.03989335 -1 17 C-1.66 17.66 -2.32 18.32 -3 19 C-2.13329546 12.64416673 -1.06965872 6.32448699 0 0 Z " fill="#3A3A3A" transform="translate(289,1262)"/>
<path d="M0 0 C0.66 0 1.32 0 2 0 C7 5.47619048 7 5.47619048 7 8 C6.01 8 5.02 8 4 8 C3.67 8.66 3.34 9.32 3 10 C2.01 6.7 1.02 3.4 0 0 Z " fill="#393A39" transform="translate(384,991)"/>
<path d="M0 0 C1.22156872 3.66470616 0.62833432 4.63237688 -0.8125 8.125 C-1.16957031 9.01445313 -1.52664063 9.90390625 -1.89453125 10.8203125 C-3 13 -3 13 -5 14 C-4.03603575 8.79459302 -3.12319499 4.40086567 0 0 Z " fill="#969694" transform="translate(317,1261)"/>
<path d="M0 0 C0.66 0 1.32 0 2 0 C2.4375 2.625 2.4375 2.625 2 6 C-0.0949488 8.33122122 -2.46073827 10.17328621 -5 12 C-5 11.01 -5 10.02 -5 9 C-4.360625 8.566875 -3.72125 8.13375 -3.0625 7.6875 C-0.67933367 6.08674484 -0.67933367 6.08674484 -0.25 2.8125 C-0.1675 1.884375 -0.085 0.95625 0 0 Z " fill="#9C9D9D" transform="translate(315,947)"/>
<path d="M0 0 C0.66 0 1.32 0 2 0 C2 0.66 2 1.32 2 2 C2.66 2 3.32 2 4 2 C4.66 4.97 5.32 7.94 6 11 C3.68828302 8.68828302 1.73919027 6.73301328 0 4 C0 2.68 0 1.36 0 0 Z " fill="#757575" transform="translate(392,1264)"/>
<path d="M0 0 C2 1 2 1 2.703125 2.70703125 C4.19382322 8.44621938 4.19382322 8.44621938 3.125 11.5 C2.75375 11.995 2.3825 12.49 2 13 C1.34 12.67 0.68 12.34 0 12 C0.66 10.02 1.32 8.04 2 6 C1.34 6 0.68 6 0 6 C0 4.02 0 2.04 0 0 Z " fill="#B6B5B6" transform="translate(442,1086)"/>
<path d="M0 0 C2.12508244 3.18762365 2.5020163 5.26512223 3 9 C2.01 9.33 1.02 9.66 0 10 C-0.66 8.02 -1.32 6.04 -2 4 C-1.34 4 -0.68 4 0 4 C0 2.68 0 1.36 0 0 Z " fill="#181819" transform="translate(426,1047)"/>
<path d="M0 0 C2.64492308 1.32246154 2.97833787 2.64535898 4.1875 5.3125 C4.55230469 6.09238281 4.91710937 6.87226562 5.29296875 7.67578125 C6.07807525 10.2566562 5.89937661 11.49663962 5 14 C5 13.01 5 12.02 5 11 C4.34 11 3.68 11 3 11 C3 9.68 3 8.36 3 7 C2.34 7 1.68 7 1 7 C0.67 4.69 0.34 2.38 0 0 Z " fill="#9A9998" transform="translate(353,892)"/>
<path d="M0 0 C1.5 1.375 1.5 1.375 3 3 C3 3.66 3 4.32 3 5 C4.98 4.67 6.96 4.34 9 4 C7.8125 5.5625 7.8125 5.5625 6 7 C3.3125 6.6875 3.3125 6.6875 1 6 C0.67 4.02 0.34 2.04 0 0 Z " fill="#8E9191" transform="translate(399,1013)"/>
<path d="M0 0 C0.66 0.33 1.32 0.66 2 1 C-0.31944788 4.47917182 -2.26369964 5.29429766 -6 7 C-6 6.01 -6 5.02 -6 4 C-3 1.8125 -3 1.8125 0 0 Z " fill="#9D9D9C" transform="translate(273,1301)"/>
<path d="M0 0 C0.99 0.33 1.98 0.66 3 1 C3.73046875 3.06640625 3.73046875 3.06640625 4.1875 5.5625 C4.34605469 6.38878906 4.50460937 7.21507812 4.66796875 8.06640625 C4.77753906 8.70449219 4.88710938 9.34257813 5 10 C2.08772731 6.71195019 0.50298788 4.40114397 0 0 Z " fill="#9D9E9E" transform="translate(429,1055)"/>
</svg>
