<?xml version="1.0" encoding="UTF-8"?>
<svg version="1.1" xmlns="http://www.w3.org/2000/svg" width="1080" height="1920">
<path d="M0 0 C0.59296875 0.45761719 1.1859375 0.91523437 1.796875 1.38671875 C2.51359375 1.87527344 3.2303125 2.36382813 3.96875 2.8671875 C5.796875 4.38671875 5.796875 4.38671875 6.796875 7.38671875 C7.415625 7.75796875 8.034375 8.12921875 8.671875 8.51171875 C13.3649531 12.65267002 13.96120093 19.45061549 14.37890625 25.41796875 C14.46949357 27.57368435 14.54609488 29.73002882 14.609375 31.88671875 C14.66029297 32.96308594 14.71121094 34.03945313 14.76367188 35.1484375 C15.07891904 43.92192645 14.39808113 51.71804186 9.796875 59.38671875 C8.806875 59.88171875 8.806875 59.88171875 7.796875 60.38671875 C7.466875 61.37671875 7.136875 62.36671875 6.796875 63.38671875 C7.786875 63.71671875 8.776875 64.04671875 9.796875 64.38671875 C11.0859375 66.4609375 11.0859375 66.4609375 12.421875 69.07421875 C16.03475215 75.39449005 20.90687 79.09005042 27.796875 81.38671875 C27.796875 82.04671875 27.796875 82.70671875 27.796875 83.38671875 C28.663125 83.48984375 29.529375 83.59296875 30.421875 83.69921875 C33.96370623 84.42070289 36.63999542 85.65795136 39.796875 87.38671875 C39.796875 88.04671875 39.796875 88.70671875 39.796875 89.38671875 C41.446875 89.71671875 43.096875 90.04671875 44.796875 90.38671875 C44.796875 91.04671875 44.796875 91.70671875 44.796875 92.38671875 C45.51875 92.44859375 46.240625 92.51046875 46.984375 92.57421875 C51.90768496 93.99650829 55.04918367 98.1928741 57.796875 102.38671875 C57.796875 103.04671875 57.796875 103.70671875 57.796875 104.38671875 C58.456875 104.38671875 59.116875 104.38671875 59.796875 104.38671875 C60.00183594 105.24136719 60.20679688 106.09601563 60.41796875 106.9765625 C60.82208984 108.63365234 60.82208984 108.63365234 61.234375 110.32421875 C61.50121094 111.42636719 61.76804687 112.52851562 62.04296875 113.6640625 C62.52683225 116.28093129 62.52683225 116.28093129 63.796875 117.38671875 C64.37255308 120.48098842 64.82714099 123.58723094 65.296875 126.69921875 C65.51782708 129.29628499 65.51782708 129.29628499 66.796875 130.38671875 C66.83751332 132.0528899 66.839596 133.7205997 66.796875 135.38671875 C67.456875 135.38671875 68.116875 135.38671875 68.796875 135.38671875 C69.13496186 137.44844488 69.46714861 139.51113905 69.796875 141.57421875 C69.9825 142.72277344 70.168125 143.87132812 70.359375 145.0546875 C70.73176977 147.89087268 70.88283521 150.53391439 70.796875 153.38671875 C71.456875 153.38671875 72.116875 153.38671875 72.796875 153.38671875 C72.9515625 154.84078125 72.9515625 154.84078125 73.109375 156.32421875 C73.50437587 159.17288457 74.21009497 161.62004865 75.23828125 164.30078125 C77.29860697 170.34180241 77.80119947 176.50108679 78.421875 182.82421875 C78.66083115 185.15658332 78.90285738 187.48863608 79.1484375 189.8203125 C79.24979004 190.84181396 79.35114258 191.86331543 79.45556641 192.91577148 C79.66194614 195.38404716 79.66194614 195.38404716 80.796875 197.38671875 C84.02278509 216.64092664 84.19776342 235.93849059 83.796875 255.38671875 C84.456875 255.38671875 85.116875 255.38671875 85.796875 255.38671875 C86.77458693 258.31985455 86.93106511 260.26850869 86.921875 263.32421875 C86.92445313 264.17886719 86.92703125 265.03351563 86.9296875 265.9140625 C86.80617754 268.21352727 86.44108187 270.18312223 85.796875 272.38671875 C85.136875 272.38671875 84.476875 272.38671875 83.796875 272.38671875 C83.77181885 273.10214844 83.7467627 273.81757812 83.72094727 274.5546875 C83.60408348 277.83217345 83.48177077 281.10943491 83.359375 284.38671875 C83.30040039 286.07474609 83.30040039 286.07474609 83.24023438 287.796875 C82.94930944 295.45043865 82.43771073 302.88575541 80.796875 310.38671875 C80.136875 310.38671875 79.476875 310.38671875 78.796875 310.38671875 C78.6525 311.14984375 78.508125 311.91296875 78.359375 312.69921875 C77.796875 315.38671875 77.796875 315.38671875 76.796875 318.38671875 C76.136875 318.38671875 75.476875 318.38671875 74.796875 318.38671875 C74.796875 319.04671875 74.796875 319.70671875 74.796875 320.38671875 C74.136875 320.38671875 73.476875 320.38671875 72.796875 320.38671875 C72.796875 321.04671875 72.796875 321.70671875 72.796875 322.38671875 C70.816875 323.04671875 68.836875 323.70671875 66.796875 324.38671875 C66.796875 325.04671875 66.796875 325.70671875 66.796875 326.38671875 C62.02114177 329.00566923 57.95252619 328.21791306 52.796875 327.38671875 C52.046875 325.13671875 52.046875 325.13671875 51.796875 322.38671875 C53.734375 320.07421875 53.734375 320.07421875 55.796875 318.38671875 C54.146875 318.05671875 52.496875 317.72671875 50.796875 317.38671875 C50.17962056 293.21091983 50.17962056 293.21091983 54.484375 282.82421875 C55.93881763 279.01496425 55.93854782 277.25084213 54.796875 273.38671875 C54.47332031 272.84015625 54.14976562 272.29359375 53.81640625 271.73046875 C52.33284039 268.31997251 52.06657666 264.79903254 51.671875 261.13671875 C51.58550781 260.39164063 51.49914062 259.6465625 51.41015625 258.87890625 C51.19900633 257.04894029 50.99702955 255.21791996 50.796875 253.38671875 C50.80589844 254.62550781 50.81492187 255.86429688 50.82421875 257.140625 C50.8521064 260.96920033 50.49003145 264.61286696 49.796875 268.38671875 C49.466875 268.71671875 49.136875 269.04671875 48.796875 269.38671875 C48.42192704 271.65105291 48.09683557 273.92373665 47.796875 276.19921875 C46.88938722 283.04082584 46.88938722 283.04082584 46.26953125 285.35839844 C45.31337899 289.46155596 45.7619524 293.84236122 45.8359375 298.04101562 C45.88170485 302.49189018 45.71061213 306.86053059 45.3359375 311.296875 C44.68656203 319.15420345 44.44660205 327.00959086 44.23925781 334.88867188 C44.17197315 337.38308024 44.09399363 339.87701208 44.015625 342.37109375 C43.78182976 350.57691489 43.76286288 358.56424033 44.70532227 366.7409668 C44.84813032 370.86792908 43.59677836 373.71491589 41.796875 377.38671875 C41.136875 377.38671875 40.476875 377.38671875 39.796875 377.38671875 C40.291875 378.08796875 40.786875 378.78921875 41.296875 379.51171875 C43.01121753 382.79754193 43.20303729 384.7312581 42.796875 388.38671875 C42.136875 389.04671875 41.476875 389.70671875 40.796875 390.38671875 C41.786875 391.87171875 41.786875 391.87171875 42.796875 393.38671875 C43.0625 395.69140625 43.0625 395.69140625 43.046875 398.26171875 C43.05460937 399.52628906 43.05460937 399.52628906 43.0625 400.81640625 C42.796875 403.38671875 42.796875 403.38671875 41.81762695 405.66357422 C40.67426925 408.71380427 40.40494059 411.28035493 40.19921875 414.52734375 C40.11994141 415.67976563 40.04066406 416.8321875 39.95898438 418.01953125 C39.88486328 419.21320313 39.81074219 420.406875 39.734375 421.63671875 C39.58083718 424.0171894 39.42350014 426.39741914 39.26171875 428.77734375 C39.195896 429.82954102 39.13007324 430.88173828 39.06225586 431.96582031 C38.796875 434.38671875 38.796875 434.38671875 37.796875 435.38671875 C37.4075512 437.72266158 37.08096682 440.03732885 36.796875 442.38671875 C36.70712402 443.10077881 36.61737305 443.81483887 36.52490234 444.55053711 C35.91229675 449.68488874 35.62116033 454.78505187 35.421875 459.94921875 C35.13085817 467.03170924 33.65630409 473.2258785 31.640625 480 C30.65920194 483.93932314 30.6527895 487.36097216 30.8515625 491.3828125 C30.77221962 494.29016221 29.39656062 496.01918404 27.796875 498.38671875 C25.28803184 508.03611553 28.82220493 518.90043454 32.87890625 527.74609375 C35.85843821 534.35791732 36.4948119 540.15563476 35.796875 547.38671875 C35.466875 548.04671875 35.136875 548.70671875 34.796875 549.38671875 C33.806875 549.38671875 32.816875 549.38671875 31.796875 549.38671875 C31.796875 550.04671875 31.796875 550.70671875 31.796875 551.38671875 C21.37934097 553.77168533 11.07179003 552.90750151 1.796875 547.38671875 C0.91048111 544.72753709 0.61698475 542.90607234 0.48046875 540.15625 C0.41762695 538.95258789 0.41762695 538.95258789 0.35351562 537.72460938 C0.31419922 536.89123047 0.27488281 536.05785156 0.234375 535.19921875 C0.19119141 534.35423828 0.14800781 533.50925781 0.10351562 532.63867188 C-0.00244018 530.55487442 -0.1032752 528.47081772 -0.203125 526.38671875 C-0.863125 526.38671875 -1.523125 526.38671875 -2.203125 526.38671875 C-2.203125 525.72671875 -2.203125 525.06671875 -2.203125 524.38671875 C-2.863125 524.38671875 -3.523125 524.38671875 -4.203125 524.38671875 C-8.79635562 517.77246665 -8.08124532 512.96624863 -7.1640625 505.1875 C-7.19968292 501.72163266 -7.53721256 500.21070575 -8.7578125 497.1171875 C-10.76155769 491.64210803 -9.94204249 487.02432714 -8.953125 481.38671875 C-8.65532375 479.51186564 -8.35843818 477.63686684 -8.0625 475.76171875 C-7.91361328 474.86453125 -7.76472656 473.96734375 -7.61132812 473.04296875 C-7.21318904 470.45220725 -6.91825533 467.86939385 -6.65625 465.26171875 C-6.203125 461.38671875 -6.203125 461.38671875 -5.203125 460.38671875 C-5.04258685 458.51349927 -5.04258685 458.51349927 -5.078125 456.38671875 C-5.07554687 455.66484375 -5.07296875 454.94296875 -5.0703125 454.19921875 C-5.00617224 452.3658246 -5.00617224 452.3658246 -6.203125 451.38671875 C-6.30339922 448.58493909 -6.34185789 445.81322763 -6.328125 443.01171875 C-6.33199219 442.23054688 -6.33585938 441.449375 -6.33984375 440.64453125 C-6.33413415 437.31012415 -6.26443505 434.57064889 -5.203125 431.38671875 C-4.98584282 429.41796724 -4.81373061 427.44408479 -4.66796875 425.46875 C-4.58095703 424.29634766 -4.49394531 423.12394531 -4.40429688 421.91601562 C-4.31728516 420.68947266 -4.23027344 419.46292969 -4.140625 418.19921875 C-4.04974609 416.99201172 -3.95886719 415.78480469 -3.86523438 414.54101562 C-3.61917773 411.1572743 -3.40166527 407.77355102 -3.203125 404.38671875 C-3.14914551 403.57122559 -3.09516602 402.75573242 -3.03955078 401.91552734 C-2.86030231 397.39825381 -3.77471238 395.11714811 -6.203125 391.38671875 C-6.86328125 388.23046875 -6.86328125 388.23046875 -7.265625 384.88671875 C-7.78120381 380.6835239 -8.60570276 377.29225313 -10.203125 373.38671875 C-10.46732159 369.22562243 -10.60447051 366.48698534 -9.17578125 362.5703125 C-8.06083795 358.92100011 -8.10351452 356.18157036 -8.390625 352.38671875 C-8.50470703 350.62328125 -8.50470703 350.62328125 -8.62109375 348.82421875 C-9.27130389 344.98405149 -10.36969517 341.22014858 -13.203125 338.38671875 C-13.25847412 339.13356934 -13.31382324 339.88041992 -13.37084961 340.64990234 C-13.62310622 344.02084867 -13.8817835 347.39127194 -14.140625 350.76171875 C-14.27114258 352.52515625 -14.27114258 352.52515625 -14.40429688 354.32421875 C-14.53481445 356.00644531 -14.53481445 356.00644531 -14.66796875 357.72265625 C-14.746521 358.7595459 -14.82507324 359.79643555 -14.90600586 360.86474609 C-15.203125 363.38671875 -15.203125 363.38671875 -16.203125 365.38671875 C-18.01863481 375.72349824 -18.68876834 386.14503057 -19.20849609 396.61230469 C-19.32837402 399.01671334 -19.45841635 401.42041646 -19.58984375 403.82421875 C-20.28387638 416.88294429 -20.45219628 429.77475928 -19.390625 442.82421875 C-19.30369385 443.91895508 -19.2167627 445.01369141 -19.12719727 446.14160156 C-18.64195075 451.77062832 -17.98115678 457.14973817 -16.640625 462.63671875 C-14.03778649 473.376714 -14.05858817 484.73993352 -14.2890625 495.74609375 C-14.30412842 496.60050049 -14.31919434 497.45490723 -14.3347168 498.33520508 C-14.37093423 499.9475926 -14.42590358 501.55971217 -14.50317383 503.1706543 C-14.63580264 508.46470584 -13.52814532 511.08116314 -10.203125 515.38671875 C-8.953125 518.76171875 -8.953125 518.76171875 -8.203125 521.38671875 C-8.533125 521.71671875 -8.863125 522.04671875 -9.203125 522.38671875 C-9.52975138 524.5483915 -9.81380905 526.71654572 -10.078125 528.88671875 C-10.64330044 533.12981617 -11.2508657 536.96887098 -12.828125 540.94921875 C-14.64935283 545.78457864 -14.3920834 550.45809189 -14.2109375 555.56640625 C-14.203125 558.38671875 -14.203125 558.38671875 -15.203125 561.38671875 C-19.61757799 565.0959041 -24.03624777 564.83847267 -29.515625 564.76171875 C-30.33224609 564.77332031 -31.14886719 564.78492188 -31.99023438 564.796875 C-37.72738071 564.76944641 -41.93644761 563.64960958 -47.203125 561.38671875 C-48.193125 561.05671875 -49.183125 560.72671875 -50.203125 560.38671875 C-50.203125 559.72671875 -50.203125 559.06671875 -50.203125 558.38671875 C-51.523125 557.72671875 -52.843125 557.06671875 -54.203125 556.38671875 C-53.94751177 554.04359745 -53.61041728 551.70828472 -53.203125 549.38671875 C-52.543125 549.05671875 -51.883125 548.72671875 -51.203125 548.38671875 C-48.59713409 544.31604682 -46.44760564 540.29759457 -47.203125 535.38671875 C-47.54472656 534.360625 -47.88632812 533.33453125 -48.23828125 532.27734375 C-49.47579759 528.02185935 -49.22482254 524.08439323 -49.015625 519.69921875 C-48.83383658 512.64740257 -49.8022027 507.79108414 -52.96484375 501.39453125 C-54.8969661 496.70136339 -55.25800512 491.9339369 -55.74609375 486.9296875 C-56.22025439 483.2539294 -57.1731085 479.94206527 -58.203125 476.38671875 C-58.76416935 472.86071084 -59.20214734 469.33211858 -59.640625 465.7890625 C-60.08028783 462.45437903 -60.08028783 462.45437903 -61.203125 459.703125 C-64.05370516 450.24944314 -63.29967972 439.84620001 -63.203125 430.07421875 C-63.01977883 411.58164599 -63.01977883 411.58164599 -65.66796875 393.3359375 C-66.59352275 388.2352567 -66.98349955 383.06073771 -67.41772461 377.89746094 C-67.49128174 377.10114258 -67.56483887 376.30482422 -67.640625 375.484375 C-67.70121094 374.76773682 -67.76179688 374.05109863 -67.82421875 373.31274414 C-68.13764731 371.06930636 -68.13764731 371.06930636 -70.203125 368.38671875 C-70.61376953 365.40332031 -70.61376953 365.40332031 -70.8359375 361.77734375 C-70.91972656 360.46507812 -71.00351562 359.1528125 -71.08984375 357.80078125 C-71.16928061 356.41276098 -71.24870762 355.02474014 -71.328125 353.63671875 C-71.41459096 352.26427396 -71.50182252 350.89187717 -71.58984375 349.51953125 C-71.9631851 343.46310498 -72.24873988 337.45641002 -72.203125 331.38671875 C-72.863125 331.38671875 -73.523125 331.38671875 -74.203125 331.38671875 C-74.698125 329.90171875 -74.698125 329.90171875 -75.203125 328.38671875 C-77.41847178 331.70973893 -77.63428152 333.4497681 -78.0546875 337.3671875 C-78.24804688 339.11225586 -78.24804688 339.11225586 -78.4453125 340.89257812 C-78.57164062 342.10751953 -78.69796875 343.32246094 -78.828125 344.57421875 C-78.9621875 345.80076172 -79.09625 347.02730469 -79.234375 348.29101562 C-79.56462109 351.32220294 -79.88722427 354.35400839 -80.203125 357.38671875 C-92.7113181 357.4644899 -92.7113181 357.4644899 -97.4609375 355.41015625 C-101.87616398 353.76230819 -106.46183262 353.49564519 -111.12109375 352.94921875 C-114.203125 352.38671875 -114.203125 352.38671875 -116.203125 350.38671875 C-116.43359375 348.3984375 -116.43359375 348.3984375 -116.390625 346.07421875 C-116.38417969 345.31496094 -116.37773437 344.55570313 -116.37109375 343.7734375 C-116.203125 341.38671875 -116.203125 341.38671875 -115.69458008 339.07836914 C-115.18421183 336.28313318 -115.12278389 333.77204179 -115.171875 330.93359375 C-115.2300533 324.15582149 -114.98652629 317.40771178 -114.703125 310.63671875 C-114.65542969 309.45078125 -114.60773438 308.26484375 -114.55859375 307.04296875 C-114.44224251 304.15745801 -114.32372152 301.27205464 -114.203125 298.38671875 C-116.18535568 300.97176479 -117.82907077 303.42721733 -119.203125 306.38671875 C-119.863125 306.38671875 -120.523125 306.38671875 -121.203125 306.38671875 C-121.30625 307.02609375 -121.409375 307.66546875 -121.515625 308.32421875 C-121.7425 309.00484375 -121.969375 309.68546875 -122.203125 310.38671875 C-123.193125 310.71671875 -124.183125 311.04671875 -125.203125 311.38671875 C-126.89186379 313.03101704 -128.55618015 314.70056093 -130.203125 316.38671875 C-134.85177365 320.38671875 -134.85177365 320.38671875 -137.203125 320.38671875 C-137.203125 321.04671875 -137.203125 321.70671875 -137.203125 322.38671875 C-139.183125 323.04671875 -141.163125 323.70671875 -143.203125 324.38671875 C-143.203125 325.04671875 -143.203125 325.70671875 -143.203125 326.38671875 C-150.54499664 329.05649025 -158.52930901 329.32921283 -166.203125 327.82421875 C-172.44628678 324.83270373 -173.98648081 317.50887891 -176.203125 311.38671875 C-176.533125 311.05671875 -176.863125 310.72671875 -177.203125 310.38671875 C-177.45655126 306.2680096 -177.3883532 302.13729942 -177.390625 298.01171875 C-177.40899414 296.26761719 -177.40899414 296.26761719 -177.42773438 294.48828125 C-177.42966797 293.37453125 -177.43160156 292.26078125 -177.43359375 291.11328125 C-177.43770264 290.08799316 -177.44181152 289.06270508 -177.44604492 288.00634766 C-177.203125 285.38671875 -177.203125 285.38671875 -175.203125 282.38671875 C-174.86910784 280.08382778 -174.86910784 280.08382778 -174.859375 277.52734375 C-174.82972656 276.57601563 -174.80007812 275.6246875 -174.76953125 274.64453125 C-174.74761719 273.65195313 -174.72570312 272.659375 -174.703125 271.63671875 C-174.5590468 265.21252615 -174.31655896 259.48840712 -172.203125 253.38671875 C-171.543125 253.38671875 -170.883125 253.38671875 -170.203125 253.38671875 C-170.120625 252.47921875 -170.038125 251.57171875 -169.953125 250.63671875 C-169.08027117 246.85435217 -168.01281362 245.95557692 -165.203125 243.38671875 C-163.8328195 241.4118667 -162.49640128 239.41285158 -161.203125 237.38671875 C-160.543125 236.39671875 -159.883125 235.40671875 -159.203125 234.38671875 C-158.543125 234.38671875 -157.883125 234.38671875 -157.203125 234.38671875 C-156.543125 232.40671875 -155.883125 230.42671875 -155.203125 228.38671875 C-154.543125 228.38671875 -153.883125 228.38671875 -153.203125 228.38671875 C-153.1 227.31421875 -152.996875 226.24171875 -152.890625 225.13671875 C-152.203125 221.38671875 -152.203125 221.38671875 -150.765625 219.48046875 C-148.9747719 217.0807256 -148.31015761 215.01217011 -147.515625 212.13671875 C-147.13857422 210.79867188 -147.13857422 210.79867188 -146.75390625 209.43359375 C-146.48126953 208.42039062 -146.48126953 208.42039062 -146.203125 207.38671875 C-145.543125 207.38671875 -144.883125 207.38671875 -144.203125 207.38671875 C-144.203125 206.06671875 -144.203125 204.74671875 -144.203125 203.38671875 C-143.543125 203.38671875 -142.883125 203.38671875 -142.203125 203.38671875 C-142.203125 202.39671875 -142.203125 201.40671875 -142.203125 200.38671875 C-141.543125 200.38671875 -140.883125 200.38671875 -140.203125 200.38671875 C-139.98398437 199.35289062 -139.76484375 198.3190625 -139.5390625 197.25390625 C-138.34306406 193.08157425 -135.9377864 190.44134713 -132.828125 187.51171875 C-132.34601563 187.02703125 -131.86390625 186.54234375 -131.3671875 186.04296875 C-128.7364051 183.483675 -126.81571162 182.03240731 -123.203125 181.38671875 C-121.91875766 179.40294205 -121.91875766 179.40294205 -121.203125 177.38671875 C-120.543125 177.38671875 -119.883125 177.38671875 -119.203125 177.38671875 C-119.203125 176.72671875 -119.203125 176.06671875 -119.203125 175.38671875 C-118.0275 175.17015625 -118.0275 175.17015625 -116.828125 174.94921875 C-114.08625742 173.69542007 -114.08625742 173.69542007 -113.53125 171.49609375 C-113.21894396 169.9130252 -112.9299234 168.32524482 -112.66015625 166.734375 C-112.14654288 164.09607043 -111.1010654 161.87367115 -109.9921875 159.4375 C-107.25405876 152.32107629 -106.17960229 144.59551491 -105.203125 137.07421875 C-104.48967813 131.74400415 -103.28713337 127.3049785 -101.203125 122.38671875 C-100.71114312 120.95355415 -100.2325927 119.51572772 -99.765625 118.07421875 C-98.03245474 112.80095604 -96.12098524 107.59512094 -94.203125 102.38671875 C-93.543125 102.38671875 -92.883125 102.38671875 -92.203125 102.38671875 C-92.12964844 101.54173828 -92.12964844 101.54173828 -92.0546875 100.6796875 C-90.77807242 97.24219642 -88.48084346 95.87805829 -85.578125 93.69921875 C-84.55460937 92.91160156 -83.53109375 92.12398437 -82.4765625 91.3125 C-78.92728402 89.22443999 -76.27733935 88.68946264 -72.203125 88.38671875 C-72.203125 87.72671875 -72.203125 87.06671875 -72.203125 86.38671875 C-70.74605774 85.88304118 -69.28742404 85.38389319 -67.828125 84.88671875 C-67.01601563 84.60828125 -66.20390625 84.32984375 -65.3671875 84.04296875 C-63.203125 83.38671875 -63.203125 83.38671875 -61.203125 83.38671875 C-61.203125 82.72671875 -61.203125 82.06671875 -61.203125 81.38671875 C-60.64625 81.21398437 -60.089375 81.04125 -59.515625 80.86328125 C-53.00735605 78.46665519 -49.83567005 75.03059991 -45.83203125 69.43359375 C-45.29449219 68.758125 -44.75695312 68.08265625 -44.203125 67.38671875 C-43.543125 67.38671875 -42.883125 67.38671875 -42.203125 67.38671875 C-41.02020347 61.8572786 -41.02020347 61.8572786 -42.515625 56.63671875 C-43.0725 55.89421875 -43.629375 55.15171875 -44.203125 54.38671875 C-47.24854377 49.01245033 -48.50354623 43.54535397 -48.203125 37.38671875 C-47.543125 37.38671875 -46.883125 37.38671875 -46.203125 37.38671875 C-46.21359863 36.77151367 -46.22407227 36.15630859 -46.23486328 35.52246094 C-46.27651195 32.72725532 -46.30247916 29.93211509 -46.328125 27.13671875 C-46.34488281 26.16863281 -46.36164063 25.20054687 -46.37890625 24.203125 C-46.38535156 23.26855469 -46.39179688 22.33398438 -46.3984375 21.37109375 C-46.40891113 20.51225586 -46.41938477 19.65341797 -46.43017578 18.76855469 C-46.18605823 16.20768279 -45.49303012 14.59160846 -44.203125 12.38671875 C-43.543125 12.38671875 -42.883125 12.38671875 -42.203125 12.38671875 C-42.14125 11.82984375 -42.079375 11.27296875 -42.015625 10.69921875 C-40.85865426 7.40630204 -38.7377648 5.74452321 -36.203125 3.38671875 C-35.625625 2.68546875 -35.048125 1.98421875 -34.453125 1.26171875 C-25.63379051 -6.08772666 -9.33758202 -6.21882962 0 0 Z " fill="#030303" transform="translate(418.203125,888.61328125)"/>
<path d="M0 0 C0.99 0.495 0.99 0.495 2 1 C2 2.65 2 4.3 2 6 C2.66 6 3.32 6 4 6 C4.33808686 8.06172613 4.67027361 10.1244203 5 12.1875 C5.185625 13.33605469 5.37125 14.48460937 5.5625 15.66796875 C5.93489477 18.50415393 6.08596021 21.14719564 6 24 C6.66 24 7.32 24 8 24 C8.103125 24.969375 8.20625 25.93875 8.3125 26.9375 C8.70750087 29.78616582 9.41321997 32.2333299 10.44140625 34.9140625 C12.50173197 40.95508366 13.00432447 47.11436804 13.625 53.4375 C13.86395615 55.76986457 14.10598238 58.10191733 14.3515625 60.43359375 C14.50359131 61.96584595 14.50359131 61.96584595 14.65869141 63.52905273 C14.86507114 65.99732841 14.86507114 65.99732841 16 68 C19.22591009 87.25420789 19.40088842 106.55177184 19 126 C19.66 126 20.32 126 21 126 C21.97771193 128.9331358 22.13419011 130.88178994 22.125 133.9375 C22.12886719 135.21947266 22.12886719 135.21947266 22.1328125 136.52734375 C22.00930254 138.82680852 21.64420687 140.79640348 21 143 C20.34 143 19.68 143 19 143 C18.97494385 143.71542969 18.9498877 144.43085937 18.92407227 145.16796875 C18.80720848 148.4454547 18.68489577 151.72271616 18.5625 155 C18.52318359 156.12535156 18.48386719 157.25070312 18.44335938 158.41015625 C18.15243444 166.0637199 17.64083573 173.49903666 16 181 C15.34 181 14.68 181 14 181 C13.855625 181.763125 13.71125 182.52625 13.5625 183.3125 C13 186 13 186 12 189 C11.34 189 10.68 189 10 189 C10 189.66 10 190.32 10 191 C9.34 191 8.68 191 8 191 C8 191.66 8 192.32 8 193 C5.03 193.99 5.03 193.99 2 195 C4.625 190.125 4.625 190.125 8 189 C11.54215966 183.89929009 13.22589946 179.27514607 13.37890625 173.078125 C13.41306641 171.97082031 13.44722656 170.86351562 13.48242188 169.72265625 C13.50884766 168.57667969 13.53527344 167.43070313 13.5625 166.25 C13.62213864 163.96342928 13.68571741 161.67695671 13.75390625 159.390625 C13.78979858 157.8751709 13.78979858 157.8751709 13.82641602 156.32910156 C14 154 14 154 15 153 C15.53379444 150.16505808 15.96509177 147.32007381 16.40234375 144.46875 C16.59957031 143.6540625 16.79679687 142.839375 17 142 C17.66 141.67 18.32 141.34 19 141 C19.58799854 138.92339783 19.58799854 138.92339783 19.8125 136.4375 C19.97685547 135.19806641 19.97685547 135.19806641 20.14453125 133.93359375 C20.15476759 130.81503109 20.15476759 130.81503109 18.54296875 127.45703125 C16.28897345 121.86772766 16.55744602 116.19964611 16.5 110.25 C16.29379889 101.15206449 15.69433921 92.39989893 14.15405273 83.43530273 C13.05708267 76.90849655 12.52116913 70.41226782 12.0625 63.8125 C11.33943166 53.84114154 9.6364057 44.63935835 7 35 C6.64497871 33.597225 6.29343704 32.19356495 5.9453125 30.7890625 C5.43617677 28.74831186 4.92060306 26.70887788 4.3671875 24.6796875 C3.27690264 20.68197634 2.79321883 17.13562343 3 13 C2.34 13 1.68 13 1 13 C0.67 8.71 0.34 4.42 0 0 Z " fill="#898886" transform="translate(483,1018)"/>
<path d="M0 0 C0.33 0 0.66 0 1 0 C1.19613594 3.02049342 1.38214855 6.04105658 1.5625 9.0625 C1.61857422 9.91005859 1.67464844 10.75761719 1.73242188 11.63085938 C2.02000027 16.59637961 1.97980799 21.11393764 1 26 C0.67 26.33 0.34 26.66 0 27 C-0.37494796 29.26433416 -0.70003943 31.5370179 -1 33.8125 C-1.90748778 40.65410709 -1.90748778 40.65410709 -2.52734375 42.97167969 C-3.48349601 47.07483721 -3.0349226 51.45564247 -2.9609375 55.65429688 C-2.91517015 60.10517143 -3.08626287 64.47381184 -3.4609375 68.91015625 C-4.11031297 76.7674847 -4.35027295 84.62287211 -4.55761719 92.50195312 C-4.62490185 94.99636149 -4.70288137 97.49029333 -4.78125 99.984375 C-5.01504524 108.19019614 -5.03401212 116.17752158 -4.09155273 124.35424805 C-3.94874468 128.48121033 -5.20009664 131.32819714 -7 135 C-7.66 135 -8.32 135 -9 135 C-8.505 135.70125 -8.01 136.4025 -7.5 137.125 C-5.7636425 140.45301854 -5.43688234 142.29951254 -6 146 C-8.02734375 147.6796875 -8.02734375 147.6796875 -10 149 C-10.36836403 133.46731672 -10.36836403 133.46731672 -8.33984375 127.22265625 C-7.91181146 124.42322664 -8.33810169 121.87624761 -8.7355957 119.09057617 C-10.09668467 108.32879884 -8.94649677 96.86630101 -8.5625 86.0625 C-8.52334473 84.90637207 -8.48418945 83.75024414 -8.44384766 82.55908203 C-8.40179199 81.47868652 -8.35973633 80.39829102 -8.31640625 79.28515625 C-8.27974854 78.31457275 -8.24309082 77.34398926 -8.20532227 76.34399414 C-8 74 -8 74 -7 72 C-6.34 72 -5.68 72 -5 72 C-5.00523682 71.03586182 -5.01047363 70.07172363 -5.01586914 69.07836914 C-5.03392118 65.51327436 -5.04543274 61.94818364 -5.05493164 58.38305664 C-5.0599714 56.83780234 -5.0668032 55.29255284 -5.07543945 53.74731445 C-5.08752076 51.53074971 -5.09323173 49.31424782 -5.09765625 47.09765625 C-5.10281754 46.4028566 -5.10797882 45.70805695 -5.11329651 44.99220276 C-5.11349277 43.3277067 -5.06189129 41.66334501 -5 40 C-4.505 39.505 -4.505 39.505 -4 39 C-3.71525984 35.93113383 -3.55128201 32.86224703 -3.37890625 29.78515625 C-3 27 -3 27 -1 25 C-0.62826984 22.3817233 -0.62826984 22.3817233 -0.5859375 19.3359375 C-0.54726563 18.21445313 -0.50859375 17.09296875 -0.46875 15.9375 C-0.4378125 14.761875 -0.406875 13.58625 -0.375 12.375 C-0.31699219 10.59996094 -0.31699219 10.59996094 -0.2578125 8.7890625 C-0.16331155 5.85953309 -0.07775442 2.93001403 0 0 Z " fill="#3F3E3B" transform="translate(467,1131)"/>
<path d="M0 0 C0.99 0.33 1.98 0.66 3 1 C2.96519531 1.58007812 2.93039062 2.16015625 2.89453125 2.7578125 C2.86746094 3.53898437 2.84039062 4.32015625 2.8125 5.125 C2.77769531 5.89070313 2.74289062 6.65640625 2.70703125 7.4453125 C2.84846463 10.1326729 2.84846463 10.1326729 4.49609375 12.66796875 C6.56453975 17.25078548 6.36353402 21.22393448 6.25 26.1875 C6.24484375 27.06986328 6.2396875 27.95222656 6.234375 28.86132812 C6.18237079 33.32393969 5.95361369 37.71087994 5.48046875 42.1484375 C4.68158455 50.27186632 4.96985218 58.44785248 5.09594727 66.59985352 C5.25196301 77.42882043 5.14485698 87.83157661 1 98 C0.62406934 99.9924325 0.28020455 101.9918674 0 104 C-0.33 104 -0.66 104 -1 104 C-1.2974708 96.56322999 -0.35912418 89.31149283 1 82 C1.495 81.505 1.495 81.505 2 81 C2.16053815 79.12678052 2.16053815 79.12678052 2.125 77 C2.12757813 76.278125 2.13015625 75.55625 2.1328125 74.8125 C2.19695276 72.97910585 2.19695276 72.97910585 1 72 C0.89972578 69.19822034 0.86126711 66.42650888 0.875 63.625 C0.87113281 62.84382813 0.86726563 62.06265625 0.86328125 61.2578125 C0.86899085 57.9234054 0.93868995 55.18393014 2 52 C2.21728218 50.03124849 2.38939439 48.05736604 2.53515625 46.08203125 C2.62216797 44.90962891 2.70917969 43.73722656 2.79882812 42.52929688 C2.88583984 41.30275391 2.97285156 40.07621094 3.0625 38.8125 C3.19881836 37.00168945 3.19881836 37.00168945 3.33789062 35.15429688 C3.58394727 31.77055555 3.80145973 28.38683227 4 25 C4.05397949 24.18450684 4.10795898 23.36901367 4.16357422 22.52880859 C4.34291351 18.00924612 3.41002029 15.74010744 1 12 C0.48828125 8.88671875 0.48828125 8.88671875 0.3125 5.6875 C0.24675781 4.61886719 0.18101562 3.55023437 0.11328125 2.44921875 C0.07589844 1.64097656 0.03851563 0.83273437 0 0 Z " fill="#BCBBBB" transform="translate(411,1268)"/>
<path d="M0 0 C0.66 0 1.32 0 2 0 C1.68289062 1.22332031 1.36578125 2.44664063 1.0390625 3.70703125 C-0.28173821 9.67625843 -0.45972263 15.59273354 -0.625 21.6875 C-0.66004639 22.86634766 -0.69509277 24.04519531 -0.73120117 25.25976562 C-0.79830415 27.67352294 -0.86009065 30.08743404 -0.91650391 32.50146484 C-0.96996697 34.74159855 -1.03139461 36.98156508 -1.10302734 39.22119141 C-2.06251971 54.71423883 -2.06251971 54.71423883 3 69 C5.53943655 71.68351806 6.91019078 71.99018163 10.64453125 72.3984375 C12.03385349 72.40636893 13.42334697 72.39808842 14.8125 72.375 C15.49892578 72.38660156 16.18535156 72.39820313 16.89257812 72.41015625 C21.96566572 72.38135916 25.44915946 71.22497992 30 69 C31.6642135 68.32723284 33.32986582 67.65793165 35 67 C35 67.66 35 68.32 35 69 C32.03 69.99 32.03 69.99 29 71 C29 71.66 29 72.32 29 73 C21.65812836 75.6697715 13.67381599 75.94249408 6 74.4375 C-0.24316178 71.44598498 -1.78335581 64.12216016 -4 58 C-4.33 57.67 -4.66 57.34 -5 57 C-5.25342626 52.88129085 -5.1852282 48.75058067 -5.1875 44.625 C-5.19974609 43.46226563 -5.21199219 42.29953125 -5.22460938 41.1015625 C-5.22654297 39.9878125 -5.22847656 38.8740625 -5.23046875 37.7265625 C-5.23457764 36.70127441 -5.23868652 35.67598633 -5.24291992 34.61962891 C-5 32 -5 32 -3 29 C-2.66598284 26.69710903 -2.66598284 26.69710903 -2.65625 24.140625 C-2.62660156 23.18929688 -2.59695312 22.23796875 -2.56640625 21.2578125 C-2.54449219 20.26523438 -2.52257812 19.27265625 -2.5 18.25 C-2.3559218 11.8258074 -2.11343396 6.10168837 0 0 Z " fill="#9B9B99" transform="translate(246,1142)"/>
<path d="M0 0 C0.66 0 1.32 0 2 0 C1.93433838 0.96542725 1.86867676 1.93085449 1.80102539 2.92553711 C1.00779871 15.13260857 0.68899085 27.33388564 0.4375 39.5625 C0.39416662 41.55664687 0.35054847 43.55078757 0.30664062 45.54492188 C0.20115552 50.36321671 0.09948412 55.18157768 0 60 C4.13190657 61.19512686 8.21239811 62.31470649 12.4375 63.125 C13.30246094 63.29257813 14.16742188 63.46015625 15.05859375 63.6328125 C16.01958984 63.81457031 16.01958984 63.81457031 17 64 C13.15695319 65.36148141 9.85376989 64.76479542 5.875 64.1875 C4.63492187 64.01605469 3.39484375 63.84460937 2.1171875 63.66796875 C-1 63 -1 63 -3 61 C-3.23046875 59.01171875 -3.23046875 59.01171875 -3.1875 56.6875 C-3.18105469 55.92824219 -3.17460937 55.16898438 -3.16796875 54.38671875 C-3 52 -3 52 -2.49145508 49.69165039 C-1.98108683 46.89641443 -1.91965889 44.38532304 -1.96875 41.546875 C-2.0269283 34.76910274 -1.78340129 28.02099303 -1.5 21.25 C-1.45230469 20.0640625 -1.40460938 18.878125 -1.35546875 17.65625 C-1.23911751 14.77073926 -1.12059652 11.88533589 -1 9 C-2.98223068 11.58504604 -4.62594577 14.04049858 -6 17 C-6.66 17 -7.32 17 -8 17 C-8.1546875 17.9590625 -8.1546875 17.9590625 -8.3125 18.9375 C-8.539375 19.618125 -8.76625 20.29875 -9 21 C-9.99 21.33 -10.98 21.66 -12 22 C-13.68873879 23.64429829 -15.35305515 25.31384218 -17 27 C-18.64864545 28.35555293 -20.31003995 29.69631653 -22 31 C-22.66 30.67 -23.32 30.34 -24 30 C-23.52949219 29.68289063 -23.05898438 29.36578125 -22.57421875 29.0390625 C-16.99385921 24.85668123 -15.39678381 20.73116767 -14 14 C-13.01 14.33 -12.02 14.66 -11 15 C-11.33 15.66 -11.66 16.32 -12 17 C-6.02983629 14.61193452 -4.47373486 9.49429533 -2 4 C-1.3396513 2.66352635 -0.67528649 1.32898848 0 0 Z " fill="#B2B3B0" transform="translate(305,1178)"/>
<path d="M0 0 C0 5.28 0 10.56 0 16 C-5.94 15.01 -5.94 15.01 -12 14 C-12 13.34 -12 12.68 -12 12 C-12.9590625 11.8453125 -12.9590625 11.8453125 -13.9375 11.6875 C-14.618125 11.460625 -15.29875 11.23375 -16 11 C-17 8 -17 8 -16.375 4.9375 C-12.88940648 0.62637117 -9.16584178 0.82661795 -3.8359375 0.2265625 C-1 0 -1 0 0 0 Z " fill="#1E1E1D" transform="translate(549,1435)"/>
<path d="M0 0 C0.66 0 1.32 0 2 0 C2.11069824 0.64960693 2.22139648 1.29921387 2.33544922 1.96850586 C2.84633033 4.95856914 3.36064381 7.94803263 3.875 10.9375 C4.04902344 11.95908203 4.22304688 12.98066406 4.40234375 14.03320312 C5.91216233 25.42589336 5.91216233 25.42589336 10 36 C12.05000871 36.80528889 12.05000871 36.80528889 14 37 C12.125 42.75 12.125 42.75 11 45 C11.66 45 12.32 45 13 45 C13.96070434 47.88211302 14.10581883 49.69850044 14.0625 52.6875 C14.05347656 53.49574219 14.04445313 54.30398438 14.03515625 55.13671875 C14.02355469 55.75160156 14.01195312 56.36648438 14 57 C13.01 57 12.02 57 11 57 C11.66 62.28 12.32 67.56 13 73 C12.34 72.67 11.68 72.34 11 72 C9.94207019 67.83278868 9.99704483 63.9310411 10.16650391 59.68286133 C10.4522331 51.7852061 9.79401189 46.19940292 6.23828125 39.0078125 C4.3061589 34.31464464 3.94511988 29.54721815 3.45703125 24.54296875 C3.08865409 20.97202794 3.08865409 20.97202794 1.98828125 17.515625 C0.94310799 13.79761735 0.59501251 10.41271889 0.375 6.5625 C0.30023438 5.32628906 0.22546875 4.09007812 0.1484375 2.81640625 C0.09945313 1.88699219 0.05046875 0.95757813 0 0 Z " fill="#787776" transform="translate(359,1351)"/>
<path d="M0 0 C1.32 0 2.64 0 4 0 C4.12117188 0.60328125 4.24234375 1.2065625 4.3671875 1.828125 C4.53476562 2.62734375 4.70234375 3.4265625 4.875 4.25 C5.11863281 5.43335938 5.11863281 5.43335938 5.3671875 6.640625 C5.89910798 8.98163772 5.89910798 8.98163772 6.9987793 10.86474609 C10.30365037 17.91288128 9.0008693 27.07698616 8.5625 34.625 C8.51029297 35.62917969 8.45808594 36.63335938 8.40429688 37.66796875 C8.27625404 40.11242295 8.14139033 42.55628782 8 45 C7.01 44.34 6.02 43.68 5 43 C4.65399753 38.84797035 4.60089618 36.09451199 6.03125 32.171875 C7.14392997 28.5287454 7.09912715 25.78846313 6.8125 22 C6.73644531 20.824375 6.66039062 19.64875 6.58203125 18.4375 C5.93182111 14.59733274 4.83342983 10.83342983 2 8 C1.94465088 8.74685059 1.88930176 9.49370117 1.83227539 10.26318359 C1.58001878 13.63412992 1.3213415 17.00455319 1.0625 20.375 C0.97548828 21.550625 0.88847656 22.72625 0.79882812 23.9375 C0.71181641 25.05898437 0.62480469 26.18046875 0.53515625 27.3359375 C0.456604 28.37282715 0.37805176 29.4097168 0.29711914 30.47802734 C0 33 0 33 -1 35 C-1.38923527 37.36950521 -1.7380578 39.7457572 -2.0625 42.125 C-2.23910156 43.40632813 -2.41570312 44.68765625 -2.59765625 46.0078125 C-2.73042969 46.99523438 -2.86320312 47.98265625 -3 49 C-3.33 49 -3.66 49 -4 49 C-4.20797979 43.28055588 -3.79071194 37.79553486 -3.0625 32.125 C-2.1272185 24.83783736 -1.62888204 17.58511811 -1.34204102 10.24462891 C-1.19362275 6.69392017 -0.94650011 3.42408933 0 0 Z " fill="#7C7D7B" transform="translate(403,1219)"/>
<path d="M0 0 C4.90614545 7.35921818 5.69372148 13.20841432 5 22 C4.67 22.66 4.34 23.32 4 24 C3.01 24 2.02 24 1 24 C1 24.66 1 25.32 1 26 C-7.02210654 27.83656285 -15.24263689 27.82085931 -23 25 C-23 24.67 -23 24.34 -23 24 C-17.06 24 -11.12 24 -5 24 C-5.33 22.68 -5.66 21.36 -6 20 C-5.34 20 -4.68 20 -4 20 C-4 20.66 -4 21.32 -4 22 C-3.34 22 -2.68 22 -2 22 C-1.87625 20.989375 -1.7525 19.97875 -1.625 18.9375 C-1.01914665 15.12062388 -0.12806088 11.68499888 1 8 C0.34 8 -0.32 8 -1 8 C-0.67 5.36 -0.34 2.72 0 0 Z " fill="#4D4D4B" transform="translate(449,1414)"/>
<path d="M0 0 C0.66 0 1.32 0 2 0 C2.10323207 8.4191486 2.02058312 16.7818778 1.5 25.1875 C0.80321378 36.94514978 1.02346463 48.37537004 1.9375 60.125 C2.02427002 61.24140869 2.11104004 62.35781738 2.20043945 63.50805664 C2.28769287 64.55985107 2.37494629 65.61164551 2.46484375 66.6953125 C2.543396 67.64422363 2.62194824 68.59313477 2.70288086 69.57080078 C2.93500284 72.13619516 2.93500284 72.13619516 4 75 C4.03954234 77.33299825 4.04401732 79.66708189 4 82 C3.67 82 3.34 82 3 82 C1.36750685 75.31226546 0.4568844 68.79133513 -0.125 61.9375 C-0.21136719 60.97650391 -0.29773438 60.01550781 -0.38671875 59.02539062 C-0.59639503 56.68400552 -0.8007244 54.34228922 -1 52 C-1.66 52 -2.32 52 -3 52 C-3.05898369 48.54174064 -3.09392131 45.0836138 -3.125 41.625 C-3.14175781 40.65949219 -3.15851563 39.69398437 -3.17578125 38.69921875 C-3.21363872 33.05845501 -2.71536492 27.98414842 -1.48095703 22.48681641 C-0.64191725 18.14851224 -0.53169662 13.78209242 -0.375 9.375 C-0.33632813 8.46621094 -0.29765625 7.55742188 -0.2578125 6.62109375 C-0.16489262 4.41424667 -0.07904156 2.20738009 0 0 Z " fill="#969693" transform="translate(397,1272)"/>
<path d="M0 0 C0.33 0 0.66 0 1 0 C1.19613594 3.02049342 1.38214855 6.04105658 1.5625 9.0625 C1.61857422 9.91005859 1.67464844 10.75761719 1.73242188 11.63085938 C2.02000027 16.59637961 1.97980799 21.11393764 1 26 C0.67 26.33 0.34 26.66 0 27 C-0.37494796 29.26433416 -0.70003943 31.5370179 -1 33.8125 C-1.90748778 40.65410709 -1.90748778 40.65410709 -2.52734375 42.97167969 C-3.48349601 47.07483721 -3.0349226 51.45564247 -2.9609375 55.65429688 C-2.91596001 60.02835743 -3.08136924 64.31356035 -3.46484375 68.671875 C-4.29652009 78.69819529 -4.36421119 88.75804334 -4.5625 98.8125 C-4.60578963 100.87305384 -4.64940686 102.93360082 -4.69335938 104.99414062 C-4.79934854 109.99602276 -4.90090902 114.99797665 -5 120 C-7.42210999 117.57789001 -7.37882659 116.58974511 -7.6875 113.25 C-7.77386719 112.40953125 -7.86023438 111.5690625 -7.94921875 110.703125 C-8 108 -8 108 -7.52075195 105.22834778 C-6.99937659 101.99613523 -6.8100725 98.91445021 -6.71875 95.64331055 C-6.68201172 94.4057048 -6.64527344 93.16809906 -6.60742188 91.89299011 C-6.58993896 91.23993582 -6.57245605 90.58688152 -6.55444336 89.9140377 C-6.49925684 87.85904569 -6.43879075 85.80426793 -6.37695312 83.74946594 C-6.22458052 78.65306885 -6.08048989 73.55644578 -5.9375 68.45977783 C-5.81609943 64.13855762 -5.69093224 59.81748199 -5.56030273 55.49653053 C-5.50056893 53.46853414 -5.44651263 51.44043492 -5.39257812 49.41227722 C-5.35583984 48.19043228 -5.31910156 46.96858734 -5.28125 45.7097168 C-5.25095703 44.6286113 -5.22066406 43.5475058 -5.18945312 42.43363953 C-5 40 -5 40 -4 39 C-3.71525984 35.93113383 -3.55128201 32.86224703 -3.37890625 29.78515625 C-3 27 -3 27 -1 25 C-0.62826984 22.3817233 -0.62826984 22.3817233 -0.5859375 19.3359375 C-0.52792969 17.65371094 -0.52792969 17.65371094 -0.46875 15.9375 C-0.42234375 14.1740625 -0.42234375 14.1740625 -0.375 12.375 C-0.31699219 10.59996094 -0.31699219 10.59996094 -0.2578125 8.7890625 C-0.16331155 5.85953309 -0.07775442 2.93001403 0 0 Z " fill="#BEBEBB" transform="translate(467,1131)"/>
<path d="M0 0 C0.99 0 1.98 0 3 0 C3.28875 0.639375 3.5775 1.27875 3.875 1.9375 C4.82823451 4.15206079 4.82823451 4.15206079 7 5 C7.39477539 7.27807617 7.39477539 7.27807617 7.59765625 10.29296875 C7.6764502 11.3927002 7.75524414 12.49243164 7.83642578 13.62548828 C7.91103027 14.80095215 7.98563477 15.97641602 8.0625 17.1875 C8.14483887 18.36812012 8.22717773 19.54874023 8.31201172 20.76513672 C8.47484383 23.1102415 8.63377521 25.45562079 8.78857422 27.80126953 C9.04917366 31.74396459 9.33625762 35.68427658 9.625 39.625 C9.75080316 41.41661045 9.87620633 43.20824958 10 45 C9.01 44.34 8.02 43.68 7 43 C6.47583008 40.13012695 6.47583008 40.13012695 6.26953125 36.48828125 C6.18896484 35.17279297 6.10839844 33.85730469 6.02539062 32.50195312 C5.95428358 31.10547605 5.88332126 29.7089916 5.8125 28.3125 C5.73107938 26.9354717 5.64841097 25.55851656 5.56445312 24.18164062 C5.20787625 18.11509695 4.95865837 12.07916455 5 6 C4.34 6 3.68 6 3 6 C2.67 5.01 2.34 4.02 2 3 C-0.21534678 6.32302018 -0.43115652 8.06304935 -0.8515625 11.98046875 C-0.98046875 13.14384766 -1.109375 14.30722656 -1.2421875 15.50585938 C-1.43167969 17.32827148 -1.43167969 17.32827148 -1.625 19.1875 C-1.7590625 20.41404297 -1.893125 21.64058594 -2.03125 22.90429688 C-2.36149609 25.93548419 -2.68409927 28.96728964 -3 32 C-8.12060921 32.0319705 -12.95024399 32.03056245 -18 31 C-18.33 30.34 -18.66 29.68 -19 29 C-14.38 29.66 -9.76 30.32 -5 31 C-4.95101563 29.87722656 -4.90203125 28.75445313 -4.8515625 27.59765625 C-3.94369062 8.73245781 -3.94369062 8.73245781 0 0 Z " fill="#B9BAB6" transform="translate(341,1214)"/>
<path d="M0 0 C1.09848394 3.5482775 1.13341955 6.86210785 1.125 10.5625 C1.12886719 12.26599609 1.12886719 12.26599609 1.1328125 14.00390625 C1 17 1 17 0 20 C-4.41445299 23.70918535 -8.83312277 23.45175392 -14.3125 23.375 C-15.53743164 23.39240234 -15.53743164 23.39240234 -16.78710938 23.41015625 C-22.5008205 23.3828397 -26.7618233 22.27851645 -32 20 C-29.0751367 19.15808218 -26.49258344 18.88180687 -23.453125 18.90234375 C-22.60878906 18.90556641 -21.76445312 18.90878906 -20.89453125 18.91210938 C-20.02183594 18.92048828 -19.14914062 18.92886719 -18.25 18.9375 C-17.36183594 18.94201172 -16.47367187 18.94652344 -15.55859375 18.95117188 C-13.37232671 18.962926 -11.18619821 18.97935751 -9 19 C-8.67 17.68 -8.34 16.36 -8 15 C-7.34 15 -6.68 15 -6 15 C-5.67 14.34 -5.34 13.68 -5 13 C-4.01 13.33 -3.02 13.66 -2 14 C-2.02320313 13.24074219 -2.04640625 12.48148438 -2.0703125 11.69921875 C-2.09738281 10.20841797 -2.09738281 10.20841797 -2.125 8.6875 C-2.14820313 7.70136719 -2.17140625 6.71523437 -2.1953125 5.69921875 C-2 3 -2 3 0 0 Z " fill="#232321" transform="translate(403,1430)"/>
<path d="M0 0 C0.33 0 0.66 0 1 0 C1.12117188 1.2065625 1.24234375 2.413125 1.3671875 3.65625 C1.53615881 5.27086471 1.70544656 6.88544632 1.875 8.5 C1.95363281 9.29148437 2.03226562 10.08296875 2.11328125 10.8984375 C2.51917409 14.70758569 3.02711379 18.34751918 4.03515625 22.046875 C5.16555756 26.27322618 5.4038197 30.39209717 5.5625 34.75 C5.66459695 39.88232461 5.66459695 39.88232461 6.51147461 44.91479492 C7.09471119 47.40426202 7.09525651 49.63480589 7.0625 52.19140625 C7.05412109 53.21049072 7.04574219 54.2295752 7.03710938 55.27954102 C7.02486328 56.36291748 7.01261719 57.44629395 7 58.5625 C6.93051843 69.41346852 7.27747729 80.17506161 8 91 C2.93898717 80.87797434 3.88969561 69.85103946 4 58.6875 C4.13292793 39.82068837 4.13292793 39.82068837 1.4765625 21.1875 C-0.06516227 14.11073058 -0.11928303 7.20999637 0 0 Z " fill="#B0AFAE" transform="translate(351,1260)"/>
<path d="M0 0 C0.66 0.33 1.32 0.66 2 1 C-2.03308481 6.0234577 -5.21370122 9.10685061 -11 12 C-17.78094133 17.52433332 -21.27484601 22.79894972 -24 31 C-24.68628785 32.6965852 -25.39381951 34.38477313 -26.125 36.0625 C-26.59292969 37.16271484 -26.59292969 37.16271484 -27.0703125 38.28515625 C-28 40 -28 40 -30 41 C-30.65555119 43.52733235 -30.65555119 43.52733235 -31 46 C-31.66 46 -32.32 46 -33 46 C-33.0825 46.66 -33.165 47.32 -33.25 48 C-34.57796586 53.31186343 -36.37959546 57.9197303 -41 61 C-40.01 58.03 -40.01 58.03 -39 55 C-38.34 55 -37.68 55 -37 55 C-36.896875 53.9275 -36.79375 52.855 -36.6875 51.75 C-36 48 -36 48 -34.5625 46.09375 C-32.7716469 43.69400685 -32.10703261 41.62545136 -31.3125 38.75 C-31.06113281 37.85796875 -30.80976563 36.9659375 -30.55078125 36.046875 C-30.36902344 35.37140625 -30.18726563 34.6959375 -30 34 C-29.34 34 -28.68 34 -28 34 C-28 32.68 -28 31.36 -28 30 C-27.34 30 -26.68 30 -26 30 C-26 29.01 -26 28.02 -26 27 C-25.34 27 -24.68 27 -24 27 C-23.78085937 25.96617188 -23.56171875 24.93234375 -23.3359375 23.8671875 C-22.13993906 19.6948555 -19.7346614 17.05462838 -16.625 14.125 C-15.90183594 13.39796875 -15.90183594 13.39796875 -15.1640625 12.65625 C-12.5332801 10.09695625 -10.61258662 8.64568856 -7 8 C-5.71563266 6.0162233 -5.71563266 6.0162233 -5 4 C-4.34 4 -3.68 4 -3 4 C-3 3.34 -3 2.68 -3 2 C-2.01 1.34 -1.02 0.68 0 0 Z " fill="#C5C6C4" transform="translate(302,1062)"/>
<path d="M0 0 C0.99 0.495 0.99 0.495 2 1 C2 2.65 2 4.3 2 6 C2.66 6 3.32 6 4 6 C4.33808686 8.06172613 4.67027361 10.1244203 5 12.1875 C5.185625 13.33605469 5.37125 14.48460937 5.5625 15.66796875 C5.93489477 18.50415393 6.08596021 21.14719564 6 24 C6.66 24 7.32 24 8 24 C8.103125 24.969375 8.20625 25.93875 8.3125 26.9375 C8.70597996 29.77617687 9.40742739 32.20617551 10.4375 34.875 C13.82752904 44.54655345 14.36972887 55.83245619 14 66 C13.67 66 13.34 66 13 66 C12.84144531 65.02804687 12.68289063 64.05609375 12.51953125 63.0546875 C10.23679479 49.43374498 7.32290893 35.93599638 3.85546875 22.56640625 C3.05279039 19.22008049 2.82888366 16.42232675 3 13 C2.34 13 1.68 13 1 13 C0.67 8.71 0.34 4.42 0 0 Z " fill="#8F8F8D" transform="translate(483,1018)"/>
<path d="M0 0 C2.35657835 2.35657835 2.27935994 2.91275505 2.4140625 6.12109375 C2.45249268 6.96534912 2.49092285 7.80960449 2.53051758 8.67944336 C2.56169678 9.58960205 2.59287598 10.49976074 2.625 11.4375 C2.68627075 12.83657593 2.68627075 12.83657593 2.7487793 14.26391602 C2.93566125 18.98457797 3.01797016 23.68270512 2.91796875 28.40625 C2.90233887 29.25388916 2.88670898 30.10152832 2.87060547 30.97485352 C2.83279215 32.57747075 2.77677328 34.17979612 2.69970703 35.78100586 C2.56780064 41.07652232 3.67386112 43.69299597 7 48 C8.25 51.375 8.25 51.375 9 54 C8.505 54.495 8.505 54.495 8 55 C7.45692928 58.48660532 7.03351345 61.98286674 6.59765625 65.484375 C6.06576858 68.613126 5.31039566 71.12699864 4 74 C2.72965395 70.18896184 3.37102523 67.06837993 3.9375 63.1875 C5.57395419 54.15409301 5.57395419 54.15409301 3.0625 45.6875 C1.2557452 43.21226036 1.2557452 43.21226036 0 42 C-0.08874135 38.89748799 -0.11518455 35.8173188 -0.09765625 32.71484375 C-0.0962413 31.78402481 -0.09482635 30.85320587 -0.09336853 29.8941803 C-0.08775172 26.90858809 -0.0751964 23.92306971 -0.0625 20.9375 C-0.05748716 18.91862087 -0.05292388 16.89974057 -0.04882812 14.88085938 C-0.03777683 9.92054428 -0.02050095 4.96028468 0 0 Z " fill="#C6C7C3" transform="translate(401,1356)"/>
<path d="M0 0 C0.59296875 0.45761719 1.1859375 0.91523437 1.796875 1.38671875 C2.87195313 2.11955078 2.87195313 2.11955078 3.96875 2.8671875 C5.796875 4.38671875 5.796875 4.38671875 6.796875 7.38671875 C7.43625 7.86109375 8.075625 8.33546875 8.734375 8.82421875 C11.04231008 10.57265441 11.83957009 11.67435483 12.796875 14.38671875 C12.921875 17.13671875 12.921875 17.13671875 12.796875 19.38671875 C12.52875 18.82984375 12.260625 18.27296875 11.984375 17.69921875 C11.5925 16.93609375 11.200625 16.17296875 10.796875 15.38671875 C10.405 14.60296875 10.013125 13.81921875 9.609375 13.01171875 C7.52597444 9.99438001 5.16802306 7.99571688 2.3203125 5.71875 C0.796875 4.38671875 0.796875 4.38671875 -0.203125 2.38671875 C-5.92558352 -1.35488874 -13.60266785 -0.97094149 -20.203125 -0.61328125 C-21.39615234 -0.56494141 -21.39615234 -0.56494141 -22.61328125 -0.515625 C-30.89359923 0.4160748 -35.63225998 5.64639776 -41.203125 11.38671875 C-41.203125 8.38671875 -41.203125 8.38671875 -38.953125 5.94921875 C-38.045625 5.10359375 -37.138125 4.25796875 -36.203125 3.38671875 C-35.625625 2.68546875 -35.048125 1.98421875 -34.453125 1.26171875 C-25.63379051 -6.08772666 -9.33758202 -6.21882962 0 0 Z " fill="#70706D" transform="translate(418.203125,888.61328125)"/>
<path d="M0 0 C0.66 0 1.32 0 2 0 C7.29262349 10.58524699 5.23841574 26.97225309 5.125 38.5 C5.11493609 40.30598454 5.10581635 42.1119746 5.09765625 43.91796875 C5.07594514 48.27878587 5.04160945 52.63932923 5 57 C4.67 57 4.34 57 4 57 C3.97812622 55.93023926 3.97812622 55.93023926 3.95581055 54.83886719 C3.66387003 41.98523193 3.32154544 29.29592723 1.01635742 16.62207031 C0.02169781 11.03624869 -0.15295339 5.66962 0 0 Z " fill="#797876" transform="translate(496,1084)"/>
<path d="M0 0 C-1.95585325 1.00484204 -3.91476237 2.00373805 -5.875 3 C-6.96554687 3.556875 -8.05609375 4.11375 -9.1796875 4.6875 C-12 6 -12 6 -14 6 C-14.66 8.31 -15.32 10.62 -16 13 C-18.89234315 13.82638376 -20.88742431 14 -24 14 C-24.33 15.32 -24.66 16.64 -25 18 C-26.98 18 -28.96 18 -31 18 C-30.72219651 14.80525981 -29.91331242 13.91864494 -27.5234375 11.67578125 C-26.48445313 10.89589844 -25.44546875 10.11601563 -24.375 9.3125 C-23.35148437 8.52488281 -22.32796875 7.73726562 -21.2734375 6.92578125 C-17.72415902 4.83772124 -15.07421435 4.30274389 -11 4 C-11 3.34 -11 2.68 -11 2 C-9.54494642 1.47007308 -8.08581873 0.9513211 -6.625 0.4375 C-5.81289063 0.14746094 -5.00078125 -0.14257812 -4.1640625 -0.44140625 C-2 -1 -2 -1 0 0 Z " fill="#717171" transform="translate(357,973)"/>
<path d="M0 0 C0.66 0 1.32 0 2 0 C1.85831863 1.43791516 1.71148957 2.8753237 1.5625 4.3125 C1.48128906 5.11300781 1.40007812 5.91351562 1.31640625 6.73828125 C0.77448012 10.61204953 -0.26599426 12.36725373 -3 15 C-6.28119605 18.48482171 -6.28119605 18.48482171 -7 23 C-5.56260487 23.02712066 -4.12506137 23.04645067 -2.6875 23.0625 C-1.88699219 23.07410156 -1.08648437 23.08570313 -0.26171875 23.09765625 C2.16861334 23.09657855 2.16861334 23.09657855 5 22 C5 22.66 5 23.32 5 24 C0.22426677 26.61895048 -3.84434881 25.83119431 -9 25 C-9.75 22.75 -9.75 22.75 -10 20 C-8.0625 17.6875 -8.0625 17.6875 -6 16 C-7.65 15.67 -9.3 15.34 -11 15 C-11 14.67 -11 14.34 -11 14 C-9.35 14 -7.7 14 -6 14 C-4.43370292 10.98029212 -3.12374836 7.91349586 -1.875 4.75 C-1.52179688 3.85796875 -1.16859375 2.9659375 -0.8046875 2.046875 C-0.53914063 1.37140625 -0.27359375 0.6959375 0 0 Z " fill="#AFB0AE" transform="translate(480,1191)"/>
<path d="M0 0 C2 1 2 1 2.6015625 2.59765625 C3.35566541 7.14445321 3.34987562 11.77170398 3.5234375 16.37109375 C4.01418287 20.10799908 4.9661302 21.90637699 7 25 C7.57479416 30.65214255 6.56462453 34.79289228 4.79296875 40.1328125 C3.52657208 44.71180342 3.06513648 49.3816613 2.52734375 54.09375 C2 57 2 57 0 59 C0.34563992 50.94301438 1.12222277 43.40438691 3.28125 35.62109375 C3.5184375 34.75613281 3.755625 33.89117188 4 33 C4.38671875 31.77990234 4.38671875 31.77990234 4.78125 30.53515625 C5.23892938 27.88793706 5.23892938 27.88793706 3.63671875 25.3984375 C1.31508214 20.57785552 1.18433897 15.91261836 0.8125 10.625 C0.73064453 9.60277344 0.64878906 8.58054687 0.56445312 7.52734375 C0.36518214 5.01887366 0.17738188 2.5100969 0 0 Z " fill="#B2B2B1" transform="translate(469,1136)"/>
<path d="M0 0 C0.66 0 1.32 0 2 0 C2 2.31 2 4.62 2 7 C1.34 7 0.68 7 0 7 C0 7.66 0 8.32 0 9 C0.99 9.33 1.98 9.66 3 10 C2.01 10.33 1.02 10.66 0 11 C-0.33 11.99 -0.66 12.98 -1 14 C-2.32 13.67 -3.64 13.34 -5 13 C-5.33 13.66 -5.66 14.32 -6 15 C-5.34 15 -4.68 15 -4 15 C-4 15.66 -4 16.32 -4 17 C-6.31 17.33 -8.62 17.66 -11 18 C-10.50861116 13.57750043 -9.18272473 12.00085475 -6 9 C-4.6296945 7.02514795 -3.29327628 5.02613283 -2 3 C-1.34 2.01 -0.68 1.02 0 0 Z " fill="#131411" transform="translate(259,1123)"/>
<path d="M0 0 C0.66 0 1.32 0 2 0 C1.67 1.98 1.34 3.96 1 6 C1.66 6 2.32 6 3 6 C2.690625 7.216875 2.38125 8.43375 2.0625 9.6875 C1.28842823 12.7782972 0.58737312 15.86734334 0 19 C-0.66 18.67 -1.32 18.34 -2 18 C-2.33 18.66 -2.66 19.32 -3 20 C-3.99 20 -4.98 20 -6 20 C-5.57534294 12.63927766 -3.01651083 6.67862176 0 0 Z " fill="#1F1F1E" transform="translate(324,991)"/>
<path d="M0 0 C1.24481025 3.73443076 0.59036631 6.12982086 0 10 C0.061875 11.546875 0.061875 11.546875 0.125 13.125 C-0.02550796 16.58668297 -1.21607574 18.07436422 -3 21 C-4.76786536 27.79948215 -3.68004 35.17805333 -0.86328125 41.5859375 C0.0909433 44.25431203 -0.03237824 45.38742125 -1 48 C-4.86234047 39.01912094 -8.7953575 29.86140007 -6 20 C-4.948125 18.7625 -4.948125 18.7625 -3.875 17.5 C-1.77436865 15.24178412 -1.77436865 15.24178412 -2.06640625 12.91015625 C-2.31342642 11.34742865 -2.56991779 9.78616823 -2.8359375 8.2265625 C-3.08110493 4.89929028 -1.75821872 2.7428212 0 0 Z " fill="#BFBFBD" transform="translate(449,1366)"/>
<path d="M0 0 C0.66 0 1.32 0 2 0 C3.21790847 2.43581694 3.1671306 4.09522156 3.1875 6.8125 C3.20167969 7.66457031 3.21585937 8.51664063 3.23046875 9.39453125 C3 12 3 12 2.02075195 14.27905273 C0.8743027 17.33506254 0.62408815 19.8862498 0.4375 23.140625 C0.36273438 24.29304688 0.28796875 25.44546875 0.2109375 26.6328125 C0.0694044 29.05984305 -0.07120904 31.48692739 -0.2109375 33.9140625 C-0.28570312 35.06132813 -0.36046875 36.20859375 -0.4375 37.390625 C-0.49808594 38.44282227 -0.55867188 39.49501953 -0.62109375 40.57910156 C-0.74613281 41.37799805 -0.87117188 42.17689453 -1 43 C-1.99 43.495 -1.99 43.495 -3 44 C-2.86100313 40.08305929 -2.71261867 36.16652898 -2.5625 32.25 C-2.52318359 31.13882812 -2.48386719 30.02765625 -2.44335938 28.8828125 C-2.40146484 27.81289062 -2.35957031 26.74296875 -2.31640625 25.640625 C-2.27974854 24.65610352 -2.24309082 23.67158203 -2.20532227 22.65722656 C-2.02294363 20.29693034 -1.60220083 18.2770719 -1 16 C-0.77609683 13.24682026 -0.58606338 10.50694671 -0.4375 7.75 C-0.39431641 7.00492188 -0.35113281 6.25984375 -0.30664062 5.4921875 C-0.20103275 3.661651 -0.10005799 1.83084824 0 0 Z " fill="#A7A6A4" transform="translate(458,1280)"/>
<path d="M0 0 C0.66 0 1.32 0 2 0 C4.34198027 12.9678209 6.55481695 25.89827473 8 39 C5.35641625 37.06953558 4.99056553 35.95243687 4.33984375 32.671875 C4.20707031 31.37765625 4.07429688 30.0834375 3.9375 28.75 C3.52565713 24.8433762 3.07452647 21.25727336 1.98046875 17.48046875 C0.93705647 13.77656299 0.59422235 10.39889108 0.375 6.5625 C0.30023438 5.32628906 0.22546875 4.09007812 0.1484375 2.81640625 C0.09945313 1.88699219 0.05046875 0.95757813 0 0 Z " fill="#7E7E7B" transform="translate(359,1351)"/>
<path d="M0 0 C0.33 0 0.66 0 1 0 C0.85950482 1.47968324 0.71245174 2.95874516 0.5625 4.4375 C0.48128906 5.26121094 0.40007812 6.08492187 0.31640625 6.93359375 C0 9 0 9 -1 10 C-1.44755772 13.11786005 -1.81954893 16.23452977 -2.16210938 19.36523438 C-2.60387999 23.03947291 -3.32003313 25.74545163 -5 29 C-5.77340348 31.80907042 -6.38137701 34.65336764 -7 37.5 C-8.97938144 46.60824742 -8.97938144 46.60824742 -11 50 C-11.66 50 -12.32 50 -13 50 C-12.04536736 45.04714122 -10.88666519 40.6591508 -8.7890625 36.05078125 C-6.04289275 28.91345888 -4.97208171 21.16867545 -4 13.625 C-3.33199246 8.55267159 -2.36985467 4.524268 0 0 Z " fill="#A6A6A5" transform="translate(317,1012)"/>
<path d="M0 0 C0.33 0 0.66 0 1 0 C1 12.21 1 24.42 1 37 C5.22496334 38.20713238 9.16754926 39.30610534 13.4375 40.125 C14.30246094 40.29257813 15.16742188 40.46015625 16.05859375 40.6328125 C17.01958984 40.81457031 17.01958984 40.81457031 18 41 C14.15695319 42.36148141 10.85376989 41.76479542 6.875 41.1875 C5.63492187 41.01605469 4.39484375 40.84460937 3.1171875 40.66796875 C0 40 0 40 -2 38 C-2.23046875 36.01171875 -2.23046875 36.01171875 -2.1875 33.6875 C-2.18105469 32.92824219 -2.17460937 32.16898438 -2.16796875 31.38671875 C-2 29 -2 29 -1.48828125 26.5546875 C-0.95643155 23.77204989 -0.93838806 21.26779846 -1 18.4375 C-1.0615527 12.24375922 -0.61162431 6.15993053 0 0 Z " fill="#8D8D86" transform="translate(304,1201)"/>
<path d="M0 0 C0.33 0 0.66 0 1 0 C1.0772418 4.55726628 0.99296412 8.53557076 0 13 C-1.91750286 12.91256669 -3.83406665 12.8043811 -5.75 12.6875 C-6.81734375 12.62949219 -7.8846875 12.57148437 -8.984375 12.51171875 C-12.1821068 11.96909846 -13.62598691 11.14928855 -16 9 C-14.1746875 8.7834375 -14.1746875 8.7834375 -12.3125 8.5625 C-11.58417969 8.46710938 -10.85585938 8.37171875 -10.10546875 8.2734375 C-8.44778402 8.05815377 -6.78681759 7.86813235 -5.125 7.6875 C-2.84914029 7.19411263 -2.84914029 7.19411263 -1.75 5.125 C-1.14919925 3.42273121 -0.57084854 1.71254562 0 0 Z " fill="#1D1E1B" transform="translate(336,1232)"/>
<path d="M0 0 C0 7 0 7 -1 10 C-1.66 10 -2.32 10 -3 10 C-3.33 9.34 -3.66 8.68 -4 8 C-4.33 8.99 -4.66 9.98 -5 11 C-5.99 11.495 -5.99 11.495 -7 12 C-8.13350534 14.01669827 -8.13350534 14.01669827 -9 16 C-9.66 16 -10.32 16 -11 16 C-11.33 16.99 -11.66 17.98 -12 19 C-12.99 18.67 -13.98 18.34 -15 18 C-12.75395494 10.62013767 -7.65250693 6.06107825 -2 1 C-1.34 0.67 -0.68 0.34 0 0 Z " fill="#161715" transform="translate(294,1071)"/>
<path d="M0 0 C2.475 0.495 2.475 0.495 5 1 C5 1.66 5 2.32 5 3 C5.721875 3.061875 6.44375 3.12375 7.1875 3.1875 C12.11080996 4.60978954 15.25230867 8.80615535 18 13 C18 13.66 18 14.32 18 15 C18.66 15 19.32 15 20 15 C20.20496094 15.85464844 20.40992188 16.70929687 20.62109375 17.58984375 C20.89050781 18.69457031 21.15992188 19.79929687 21.4375 20.9375 C21.70433594 22.03964844 21.97117187 23.14179687 22.24609375 24.27734375 C22.72995725 26.89421254 22.72995725 26.89421254 24 28 C24.23427778 30.01594582 24.41336124 32.038474 24.5625 34.0625 C24.68818359 35.71958984 24.68818359 35.71958984 24.81640625 37.41015625 C24.90728516 38.69212891 24.90728516 38.69212891 25 40 C23.18564961 37.27847441 22.60369748 35.93265591 21.921875 32.8671875 C18.20552775 16.72070874 18.20552775 16.72070874 7 5 C4.6903196 3.61322537 2.36271388 2.29717625 0 1 C0 0.67 0 0.34 0 0 Z " fill="#B6B6B5" transform="translate(458,978)"/>
<path d="M0 0 C0.33 0 0.66 0 1 0 C1.06058594 0.85722656 1.12117188 1.71445313 1.18359375 2.59765625 C1.26738281 3.74105469 1.35117187 4.88445312 1.4375 6.0625 C1.55931641 7.75052734 1.55931641 7.75052734 1.68359375 9.47265625 C1.8925426 11.80204895 2.17404812 14.12619371 2.53125 16.4375 C3.0410808 20.31221409 3.09706961 24.03113446 3.0625 27.9375 C3.05573242 28.96327148 3.05573242 28.96327148 3.04882812 30.00976562 C3.0371956 31.67321604 3.01926694 33.3366205 3 35 C3.66 35 4.32 35 5 35 C6.485 38.465 6.485 38.465 8 42 C7.34 42 6.68 42 6 42 C6 41.34 6 40.68 6 40 C5.34 40 4.68 40 4 40 C0.1716443 34.48716779 -0.11381833 30.8966751 0.625 24.3125 C1.09682422 18.77144244 0.73010972 15.00258599 -1.359375 9.90234375 C-2.31878278 7.05337064 -1.82856762 4.83093935 -1 2 C-0.67 1.34 -0.34 0.68 0 0 Z " fill="#A9A7A5" transform="translate(410,1373)"/>
<path d="M0 0 C0.33 0 0.66 0 1 0 C1.22985462 3.91570522 1.42978686 7.83242714 1.625 11.75 C1.68945312 12.84183594 1.75390625 13.93367188 1.8203125 15.05859375 C2.26759855 24.50751152 1.60199222 33.19593825 -2 42 C-2.37593066 43.9924325 -2.71979545 45.9918674 -3 48 C-3.33 48 -3.66 48 -4 48 C-4.2974708 40.56322999 -3.35912418 33.31149283 -2 26 C-1.67 25.67 -1.34 25.34 -1 25 C-0.84213692 23.14825294 -0.74892644 21.2909089 -0.68359375 19.43359375 C-0.62075195 17.7465332 -0.62075195 17.7465332 -0.55664062 16.02539062 C-0.51732422 14.84138672 -0.47800781 13.65738281 -0.4375 12.4375 C-0.39431641 11.24962891 -0.35113281 10.06175781 -0.30664062 8.83789062 C-0.20016454 5.89205216 -0.09815159 2.9461257 0 0 Z " fill="#807F7C" transform="translate(414,1324)"/>
<path d="M0 0 C0.33 0 0.66 0 1 0 C0.93941406 0.81339844 0.87882812 1.62679688 0.81640625 2.46484375 C0.23026209 10.4450573 0.23026209 10.4450573 -0.21875 18.43359375 C-0.25556885 19.17295166 -0.2923877 19.91230957 -0.33032227 20.67407227 C-0.39988872 22.10264081 -0.46324478 23.53153038 -0.51928711 24.96069336 C-0.76492498 29.86225858 -1.69245914 34.26744319 -3 39 C-3.33 39 -3.66 39 -4 39 C-3.42528455 12.0423526 -3.42528455 12.0423526 0 0 Z " fill="#B9BAB7" transform="translate(454,1326)"/>
<path d="M0 0 C1.3832793 3.97692799 2 6.82605263 2 11 C2.99 11.33 3.98 11.66 5 12 C4.01 12.33 3.02 12.66 2 13 C-3.17306967 10.02548494 -4.28128202 6.42753046 -6 1 C-4 0 -4 0 0 0 Z " fill="#0F100E" transform="translate(251,1202)"/>
<path d="M0 0 C0.66 0.33 1.32 0.66 2 1 C1.57884254 4.36925966 0.58706125 6.91938593 -1 9.875 C-2.91238038 13.5806748 -3.9170226 16.7681525 -4 21 C-2.70735301 22.96431405 -2.70735301 22.96431405 -1 24 C-1.99 24.33 -2.98 24.66 -4 25 C-4 24.34 -4 23.68 -4 23 C-5.32 22.34 -6.64 21.68 -8 21 C-7.74438677 18.6568787 -7.40729228 16.32156597 -7 14 C-6.34 13.67 -5.68 13.34 -5 13 C-2.4906128 8.94710294 -0.59476219 4.75809749 0 0 Z " fill="#9A9998" transform="translate(372,1424)"/>
<path d="M0 0 C3.76574085 1.25524695 3.86589102 2.24643594 5.625 5.6875 C9.23787715 12.0077713 14.109995 15.70333167 21 18 C21 18.66 21 19.32 21 20 C18.69 20 16.38 20 14 20 C13.67 19.01 13.34 18.02 13 17 C12.34 17 11.68 17 11 17 C9.4921875 15.3203125 9.4921875 15.3203125 7.875 13.125 C7.33617187 12.40570312 6.79734375 11.68640625 6.2421875 10.9453125 C5 9 5 9 5 7 C4.34 7 3.68 7 3 7 C2.01 4.69 1.02 2.38 0 0 Z " fill="#C7C7C3" transform="translate(425,952)"/>
<path d="M0 0 C13.86 0.99 13.86 0.99 28 2 C27.67 2.66 27.34 3.32 27 4 C23.99943916 4.08166849 21.0011461 4.14081551 18 4.1875 C16.74123047 4.22520508 16.74123047 4.22520508 15.45703125 4.26367188 C9.59597871 4.33182365 5.36833894 3.36728835 0 1 C0 0.67 0 0.34 0 0 Z " fill="#9C9E9A" transform="translate(371,1449)"/>
<path d="M0 0 C0.66 0 1.32 0 2 0 C1.88490339 1.41750563 1.75746342 2.83401169 1.625 4.25 C1.55539062 5.03890625 1.48578125 5.8278125 1.4140625 6.640625 C0.98492887 9.085877 0.21399362 10.84836903 -1 13 C-1.66 13 -2.32 13 -3 13 C-2.505 13.70125 -2.01 14.4025 -1.5 15.125 C0.2363575 18.45301854 0.56311766 20.29951254 0 24 C-2.02734375 25.6796875 -2.02734375 25.6796875 -4 27 C-4.08139142 24.60347472 -4.14067009 22.20974564 -4.1875 19.8125 C-4.22520508 18.80219727 -4.22520508 18.80219727 -4.26367188 17.77148438 C-4.3303611 13.21438718 -3.53663572 10.72730147 -1 7 C-0.28076792 3.30476048 -0.28076792 3.30476048 0 0 Z " fill="#B5B4B2" transform="translate(461,1253)"/>
<path d="M0 0 C0.33 0 0.66 0 1 0 C0.8595017 2.7920301 0.71284617 5.58349796 0.5625 8.375 C0.50352539 9.56609375 0.50352539 9.56609375 0.44335938 10.78125 C0.11328125 16.7734375 0.11328125 16.7734375 -1 19 C-1.38923527 21.36950521 -1.7380578 23.7457572 -2.0625 26.125 C-2.23910156 27.40632813 -2.41570312 28.68765625 -2.59765625 30.0078125 C-2.73042969 30.99523438 -2.86320312 31.98265625 -3 33 C-3.33 33 -3.66 33 -4 33 C-4.17082793 25.8697907 -3.52452693 19.06083021 -2.5625 12 C-2.42779297 10.95199219 -2.29308594 9.90398437 -2.15429688 8.82421875 C-1.13160878 1.13160878 -1.13160878 1.13160878 0 0 Z " fill="#B0B0AA" transform="translate(403,1235)"/>
<path d="M0 0 C0.66 0 1.32 0 2 0 C5.40885132 6.81770263 4.11666046 16.67967033 3 24 C2.67 24 2.34 24 2 24 C0.70098079 15.95072024 -0.33853295 8.16240568 0 0 Z " fill="#666565" transform="translate(496,1084)"/>
<path d="M0 0 C0.66 0 1.32 0 2 0 C5.41612275 5.3488175 5.08373305 8.66953708 3.8125 14.5625 C3.60270508 15.6752832 3.60270508 15.6752832 3.38867188 16.81054688 C2.6166894 20.73333565 1.64733476 24.33522444 0 28 C-1.27034605 24.18896184 -0.62897477 21.06837993 -0.0625 17.1875 C1.33365545 8.53305886 1.33365545 8.53305886 0 0 Z " fill="#868683" transform="translate(405,1402)"/>
<path d="M0 0 C4.94062886 6.01467862 4.05845095 11.72912199 3.9375 19.2734375 C3.99397055 22.64049377 4.34683645 25.70356519 5 29 C4.01 28.67 3.02 28.34 2 28 C1.98018066 27.31373535 1.96036133 26.6274707 1.93994141 25.92041016 C1.84489055 22.82154221 1.73513153 19.72336706 1.625 16.625 C1.5940625 15.54476562 1.563125 14.46453125 1.53125 13.3515625 C1.49257813 12.3203125 1.45390625 11.2890625 1.4140625 10.2265625 C1.3826416 9.27346191 1.3512207 8.32036133 1.31884766 7.33837891 C1.21444204 4.81104824 1.21444204 4.81104824 -1 3 C-0.67 2.01 -0.34 1.02 0 0 Z " fill="#393836" transform="translate(427,900)"/>
<path d="M0 0 C4.22797927 1.67357513 4.22797927 1.67357513 6 4 C6.55116813 8.37151981 6.34213687 12.61557936 6 17 C6.66 17 7.32 17 8 17 C8.625 20.375 8.625 20.375 9 24 C8.34 24.66 7.68 25.32 7 26 C6.54427083 24.046875 6.08854167 22.09375 5.6328125 20.140625 C5.07426339 17.96525387 5.07426339 17.96525387 3.90625 16.03125 C2.77733603 13.50092557 2.97511866 11.96919313 3.375 9.25 C3.48585938 8.45078125 3.59671875 7.6515625 3.7109375 6.828125 C3.80632812 6.22484375 3.90171875 5.6215625 4 5 C2.68 4.34 1.36 3.68 0 3 C0 2.01 0 1.02 0 0 Z " fill="#3D3C3D" transform="translate(410,1264)"/>
<path d="M0 0 C0.99 0.33 1.98 0.66 3 1 C2.67 1.66 2.34 2.32 2 3 C2.99 3.33 3.98 3.66 5 4 C4.360625 4.226875 3.72125 4.45375 3.0625 4.6875 C2.381875 5.120625 1.70125 5.55375 1 6 C0.9175 6.7425 0.835 7.485 0.75 8.25 C-0.46597514 12.7085755 -4.27552243 14.53115496 -8 17 C-8.66 16.67 -9.32 16.34 -10 16 C-9.52949219 15.68289063 -9.05898438 15.36578125 -8.57421875 15.0390625 C-2.99385921 10.85668123 -1.39678381 6.73116767 0 0 Z " fill="#656563" transform="translate(291,1192)"/>
<path d="M0 0 C0.66 0 1.32 0 2 0 C1.690625 0.9075 1.38125 1.815 1.0625 2.75 C0.01746578 5.79109749 0.01746578 5.79109749 -0.5 8.125 C-1.06879693 10.2579885 -1.95997718 12.05862407 -3 14 C-4.32 13.01 -5.64 12.02 -7 11 C-6.34 11 -5.68 11 -5 11 C-4.80664062 10.37351562 -4.61328125 9.74703125 -4.4140625 9.1015625 C-4.02347656 7.87566406 -4.02347656 7.87566406 -3.625 6.625 C-3.36976563 5.81289062 -3.11453125 5.00078125 -2.8515625 4.1640625 C-2 2 -2 2 0 0 Z M-6 15 C-5.34 15.66 -4.68 16.32 -4 17 C-4.99 17.495 -4.99 17.495 -6 18 C-6 17.01 -6 16.02 -6 15 Z " fill="#111110" transform="translate(279,1091)"/>
<path d="M0 0 C0.66 0 1.32 0 2 0 C1.01 3.63 0.02 7.26 -1 11 C-1.66 11 -2.32 11 -3 11 C-3.0825 11.66 -3.165 12.32 -3.25 13 C-4.57796586 18.31186343 -6.37959546 22.9197303 -11 26 C-10.34 24.02 -9.68 22.04 -9 20 C-8.34 20 -7.68 20 -7 20 C-6.8453125 18.39125 -6.8453125 18.39125 -6.6875 16.75 C-5.97706749 12.8749136 -5.28602321 11.98941497 -3 9 C-1.8610433 6.04180476 -0.91420264 3.03437472 0 0 Z " fill="#BABCB8" transform="translate(272,1097)"/>
<path d="M0 0 C4.90614545 7.35921818 5.69372148 13.20841432 5 22 C4.67 22.66 4.34 23.32 4 24 C3.01 23.67 2.02 23.34 1 23 C1.33 22.67 1.66 22.34 2 22 C2.12635423 19.91956287 2.17581705 17.83423788 2.1875 15.75 C2.20167969 14.61046875 2.21585937 13.4709375 2.23046875 12.296875 C2.0035085 9.05018941 1.25653219 6.96005212 0 4 C0 2.68 0 1.36 0 0 Z " fill="#BABABA" transform="translate(449,1414)"/>
<path d="M0 0 C0.66 0.33 1.32 0.66 2 1 C1.88506243 2.89646998 1.75760358 4.79218332 1.625 6.6875 C1.55539062 7.74324219 1.48578125 8.79898437 1.4140625 9.88671875 C1.01239911 12.90677269 0.25930981 15.24078054 -1 18 C-1.66 18 -2.32 18 -3 18 C-3.70074844 14.846632 -4 12.27275026 -4 9 C-3.01 8.34 -2.02 7.68 -1 7 C-0.26393501 3.43230448 -0.26393501 3.43230448 0 0 Z " fill="#171716" transform="translate(463,1157)"/>
<path d="M0 0 C4.09814614 0.65570338 7.66537789 2.59024763 11 5 C12.1875 7.0625 12.1875 7.0625 13 9 C13.66 9.495 14.32 9.99 15 10.5 C17.27920309 12.20940232 18.05699622 13.32815597 19 16 C19.125 18.75 19.125 18.75 19 21 C18.731875 20.443125 18.46375 19.88625 18.1875 19.3125 C17.5996875 18.1678125 17.5996875 18.1678125 17 17 C16.608125 16.21625 16.21625 15.4325 15.8125 14.625 C13.72909944 11.60766126 11.37114806 9.60899813 8.5234375 7.33203125 C7 6 7 6 6 4 C4.02477154 2.95191959 2.02518491 1.9479589 0 1 C0 0.67 0 0.34 0 0 Z " fill="#BEBEBD" transform="translate(412,887)"/>
<path d="M0 0 C0.33 0 0.66 0 1 0 C1.33 1.65 1.66 3.3 2 5 C5.63 5.66 9.26 6.32 13 7 C13 7.66 13 8.32 13 9 C13.99 9 14.98 9 16 9 C16 9.66 16 10.32 16 11 C10.06 10.01 10.06 10.01 4 9 C4 8.34 4 7.68 4 7 C3.360625 6.896875 2.72125 6.79375 2.0625 6.6875 C1.381875 6.460625 0.70125 6.23375 0 6 C-1 3 -1 3 0 0 Z " fill="#787976" transform="translate(533,1440)"/>
<path d="M0 0 C1.32 0 2.64 0 4 0 C4.33 2.31 4.66 4.62 5 7 C4.01 6.34 3.02 5.68 2 5 C1.67 11.93 1.34 18.86 1 26 C0.67 26 0.34 26 0 26 C0 17.42 0 8.84 0 0 Z " fill="#4A4949" transform="translate(466,1130)"/>
<path d="M0 0 C0.66 0 1.32 0 2 0 C2 2.31 2 4.62 2 7 C1.34 7 0.68 7 0 7 C0 7.66 0 8.32 0 9 C-1.98 9.66 -3.96 10.32 -6 11 C-4.74809374 6.51400257 -3.20614467 3.40652872 0 0 Z " fill="#71716F" transform="translate(259,1123)"/>
<path d="M0 0 C1.09848394 3.5482775 1.13341955 6.86210785 1.125 10.5625 C1.12757813 11.69816406 1.13015625 12.83382813 1.1328125 14.00390625 C1 17 1 17 0 20 C-2.0625 20.6875 -2.0625 20.6875 -4 21 C-3.01 19.515 -3.01 19.515 -2 18 C-1.90864723 15.46496067 -1.90372359 13.02725582 -2 10.5 C-2.27027027 3.40540541 -2.27027027 3.40540541 0 0 Z " fill="#BABAB9" transform="translate(403,1430)"/>
<path d="M0 0 C0.66 0 1.32 0 2 0 C1.85831863 1.43791516 1.71148957 2.8753237 1.5625 4.3125 C1.48128906 5.11300781 1.40007812 5.91351562 1.31640625 6.73828125 C1 9 1 9 0 12 C-1.32 11.34 -2.64 10.68 -4 10 C-2.68 6.7 -1.36 3.4 0 0 Z " fill="#969694" transform="translate(480,1191)"/>
<path d="M0 0 C0.99 0.495 0.99 0.495 2 1 C2 2.65 2 4.3 2 6 C2.66 6 3.32 6 4 6 C4.33 9.96 4.66 13.92 5 18 C3 15 3 15 3 13 C2.34 13 1.68 13 1 13 C0.67 8.71 0.34 4.42 0 0 Z " fill="#A5A5A5" transform="translate(483,1018)"/>
<path d="M0 0 C1.16306865 2.3261373 2.31357926 4.65442628 3.4375 7 C4.83336766 9.96856745 4.83336766 9.96856745 6.75 12 C8 14 8 14 7.875 17.125 C7 20 7 20 4 22 C4.226875 20.948125 4.45375 19.89625 4.6875 18.8125 C5.04030755 14.50824788 4.47682187 13.39416331 2 10 C-0.09730206 6.57808611 -0.18145385 3.99198466 0 0 Z " fill="#ACAAA9" transform="translate(372,933)"/>
<path d="M0 0 C2.14210449 1.76956458 2.96060573 2.87575652 3.8125 5.5625 C3.874375 6.366875 3.93625 7.17125 4 8 C3.34 8.66 2.68 9.32 2 10 C1.01 10 0.02 10 -1 10 C-1.33 7.03 -1.66 4.06 -2 1 C-1.34 0.67 -0.68 0.34 0 0 Z " fill="#121211" transform="translate(366,1371)"/>
<path d="M0 0 C1.68311025 3.36622049 0.04787447 6.86350556 -0.8125 10.375 C-0.99103516 11.14328125 -1.16957031 11.9115625 -1.35351562 12.703125 C-2.22983317 16.36024803 -3.06795518 19.73038569 -5 23 C-5.66 23 -6.32 23 -7 23 C-5.90187066 17.30264659 -4.3667946 12.32528785 -2 7 C-1.25725311 4.68062475 -0.62483921 2.35516319 0 0 Z " fill="#C0BEBD" transform="translate(311,1039)"/>
<path d="M0 0 C0.33 0 0.66 0 1 0 C1.38133299 1.9914056 1.71325582 3.99279077 2 6 C1.67 6.33 1.34 6.66 1 7 C0.92851801 8.35243917 0.91600546 9.70834367 0.9375 11.0625 C0.958125 12.361875 0.97875 13.66125 1 15 C1.66 15.33 2.32 15.66 3 16 C3 16.66 3 17.32 3 18 C1.35 18 -0.3 18 -2 18 C-2.2361959 11.59646678 -1.823321 6.15370839 0 0 Z " fill="#3F3F3E" transform="translate(471,1187)"/>
<path d="M0 0 C2.9375 0.8125 2.9375 0.8125 6 2 C6.33 2.99 6.66 3.98 7 5 C9.00016466 6.20882096 9.00016466 6.20882096 11 7 C11 7.66 11 8.32 11 9 C10.34 9 9.68 9 9 9 C9 8.34 9 7.68 9 7 C6.36 7 3.72 7 1 7 C0.67 4.69 0.34 2.38 0 0 Z " fill="#1A1C1A" transform="translate(412,888)"/>
<path d="M0 0 C0.99 0.495 0.99 0.495 2 1 C2 3.64 2 6.28 2 9 C3.32 9 4.64 9 6 9 C5.67 9.99 5.34 10.98 5 12 C4.34 12 3.68 12 3 12 C3 14.64 3 17.28 3 20 C2.34 19.67 1.68 19.34 1 19 C0.67 12.73 0.34 6.46 0 0 Z " fill="#242422" transform="translate(349,1240)"/>
<path d="M0 0 C1.2077558 3.62326739 0.54311128 4.64146369 -1 8 C-1.66 8 -2.32 8 -3 8 C-3 8.66 -3 9.32 -3 10 C-3.66 10 -4.32 10 -5 10 C-5 10.66 -5 11.32 -5 12 C-6.98 12.66 -8.96 13.32 -11 14 C-8.375 9.125 -8.375 9.125 -5 8 C-3.55129381 6.14195683 -3.55129381 6.14195683 -2.3125 3.9375 C-1.87550781 3.20402344 -1.43851562 2.47054688 -0.98828125 1.71484375 C-0.66214844 1.14894531 -0.33601563 0.58304688 0 0 Z " fill="#9F9F9C" transform="translate(496,1199)"/>
<path d="M0 0 C0.66 0.33 1.32 0.66 2 1 C1.5359375 2.7634375 1.5359375 2.7634375 1.0625 4.5625 C-0.45584043 11.28196405 -0.6565703 18.14044366 -1 25 C-1.33 25 -1.66 25 -2 25 C-2.05816623 21.58340509 -2.09365195 18.16693795 -2.125 14.75 C-2.14175781 13.78191406 -2.15851563 12.81382812 -2.17578125 11.81640625 C-2.18222656 10.88183594 -2.18867188 9.94726562 -2.1953125 8.984375 C-2.20578613 8.12553711 -2.21625977 7.26669922 -2.22705078 6.38183594 C-1.98293323 3.82096404 -1.28990512 2.20488971 0 0 Z " fill="#B1B1B1" transform="translate(374,901)"/>
<path d="M0 0 C-0.94875 0.309375 -1.8975 0.61875 -2.875 0.9375 C-8.50453307 3.2956617 -12.65760117 7.83234559 -17 12 C-17 9 -17 9 -14.75 6.5625 C-13.8425 5.716875 -12.935 4.87125 -12 4 C-10.9790625 2.88625 -10.9790625 2.88625 -9.9375 1.75 C-6.62815077 -1.23908963 -4.1556941 -1.33575882 0 0 Z " fill="#A1A1A0" transform="translate(394,888)"/>
<path d="M0 0 C1.47193312 2.94386623 0.84936173 5.37390036 0.5625 8.625 C0.40974609 10.40777344 0.40974609 10.40777344 0.25390625 12.2265625 C0.12822266 13.59941406 0.12822266 13.59941406 0 15 C-0.99 14.34 -1.98 13.68 -3 13 C-3.53189865 7.59236371 -3.35406327 4.47208436 0 0 Z " fill="#767578" transform="translate(411,1249)"/>
<path d="M0 0 C2.12512683 6.3753805 -2.31263823 14.11339804 -5 20 C-6.02826931 16.86332092 -5.99386675 15.16815258 -4.78515625 12.109375 C-4.37426758 11.04589844 -4.37426758 11.04589844 -3.95507812 9.9609375 C-3.66052734 9.23132813 -3.36597656 8.50171875 -3.0625 7.75 C-2.77181641 7.00492188 -2.48113281 6.25984375 -2.18164062 5.4921875 C-1.46426278 3.65758186 -0.73342561 1.82824935 0 0 Z " fill="#B7B7B5" transform="translate(324,991)"/>
<path d="M0 0 C0.33 0 0.66 0 1 0 C1.33 4.62 1.66 9.24 2 14 C1.01 13.34 0.02 12.68 -1 12 C-1.328125 9.43359375 -1.328125 9.43359375 -1.25 6.4375 C-1.23453125 5.44621094 -1.2190625 4.45492188 -1.203125 3.43359375 C-1 1 -1 1 0 0 Z " fill="#B8B8B7" transform="translate(349,1245)"/>
<path d="M0 0 C-1.50223584 4.20626034 -4.28550034 5.73900021 -8 8 C-8.33 6.68 -8.66 5.36 -9 4 C-3.375 0 -3.375 0 0 0 Z " fill="#1D1E1C" transform="translate(289,1200)"/>
<path d="M0 0 C0.99 0 1.98 0 3 0 C2.32116957 3.11547441 1.25893098 5.85137721 -0.0625 8.75 C-0.60583984 9.94882813 -0.60583984 9.94882813 -1.16015625 11.171875 C-1.57587891 12.07679687 -1.57587891 12.07679687 -2 13 C-2.66 12.67 -3.32 12.34 -4 12 C-3.34 10.68 -2.68 9.36 -2 8 C-2.66 7.67 -3.32 7.34 -4 7 C-3.34 7 -2.68 7 -2 7 C-2 5.68 -2 4.36 -2 3 C-1.34 3 -0.68 3 0 3 C0 2.01 0 1.02 0 0 Z " fill="#7A7A79" transform="translate(276,1089)"/>
<path d="M0 0 C2 3 2 3 1.625 5.1875 C1.41875 5.785625 1.2125 6.38375 1 7 C0.34 7 -0.32 7 -1 7 C-1.33 7.99 -1.66 8.98 -2 10 C-2.99 9.67 -3.98 9.34 -5 9 C-2.25 2.25 -2.25 2.25 0 0 Z " fill="#232422" transform="translate(284,1080)"/>
<path d="M0 0 C0.33 0 0.66 0 1 0 C1.13277344 1.05960938 1.26554687 2.11921875 1.40234375 3.2109375 C1.58053875 4.59898279 1.7589346 5.98700231 1.9375 7.375 C2.06801758 8.42300781 2.06801758 8.42300781 2.20117188 9.4921875 C2.66318128 13.36783575 2.66318128 13.36783575 4 17 C2.68 17 1.36 17 0 17 C-0.98844951 13.05352382 -0.96191905 9.72607036 -0.5625 5.6875 C-0.46066406 4.61886719 -0.35882813 3.55023437 -0.25390625 2.44921875 C-0.17011719 1.64097656 -0.08632813 0.83273437 0 0 Z " fill="#262625" transform="translate(499,1130)"/>
<path d="M0 0 C0.99 0.495 0.99 0.495 2 1 C2.33 1.99 2.66 2.98 3 4 C3.66 4.33 4.32 4.66 5 5 C5.96070434 7.88211302 6.10581883 9.69850044 6.0625 12.6875 C6.05347656 13.49574219 6.04445313 14.30398438 6.03515625 15.13671875 C6.02355469 15.75160156 6.01195312 16.36648438 6 17 C5.34 16.67 4.68 16.34 4 16 C4 13.36 4 10.72 4 8 C3.34 8 2.68 8 2 8 C1.34 5.36 0.68 2.72 0 0 Z " fill="#6D6C6B" transform="translate(367,1391)"/>
<path d="M0 0 C0.33 0 0.66 0 1 0 C1.06058594 0.90363281 1.12117188 1.80726562 1.18359375 2.73828125 C1.26738281 3.91777344 1.35117187 5.09726563 1.4375 6.3125 C1.55931641 8.07013672 1.55931641 8.07013672 1.68359375 9.86328125 C1.8867371 13.02590958 1.8867371 13.02590958 3 16 C2.34 16 1.68 16 1 16 C-1.23298687 10.81947046 -2.60573225 7.62006286 -1 2 C-0.67 1.34 -0.34 0.68 0 0 Z " fill="#747373" transform="translate(410,1373)"/>
<path d="M0 0 C0.66 0.33 1.32 0.66 2 1 C0.88200014 2.33920838 -0.24461897 3.67122556 -1.375 5 C-2.00148438 5.7425 -2.62796875 6.485 -3.2734375 7.25 C-4.12808594 8.11625 -4.12808594 8.11625 -5 9 C-5.66 9 -6.32 9 -7 9 C-6.6875 7.0625 -6.6875 7.0625 -6 5 C-5.01 4.67 -4.02 4.34 -3 4 C-3 3.34 -3 2.68 -3 2 C-2.01 1.34 -1.02 0.68 0 0 Z " fill="#818381" transform="translate(302,1062)"/>
<path d="M0 0 C2 1 2 1 2.66796875 2.92578125 C2.83941406 3.71339844 3.01085937 4.50101563 3.1875 5.3125 C3.36667969 6.09238281 3.54585938 6.87226562 3.73046875 7.67578125 C4.01067443 10.09204759 3.74132137 11.70242952 3 14 C0.81005752 10.71508627 0.64722661 9.16904361 0.375 5.3125 C0.30023438 4.31863281 0.22546875 3.32476563 0.1484375 2.30078125 C0.09945313 1.54152344 0.05046875 0.78226563 0 0 Z " fill="#B9B9B8" transform="translate(363,1376)"/>
<path d="M0 0 C2 2 2 2 2.25 4.625 C1.95334172 8.62988673 1.06736977 12.13078458 0 16 C-0.33 16 -0.66 16 -1 16 C-1.11138159 10.54230189 -0.91657981 5.38490641 0 0 Z " fill="#D8D7D7" transform="translate(451,1349)"/>
<path d="M0 0 C1.32 0 2.64 0 4 0 C4 0.66 4 1.32 4 2 C3.34 2 2.68 2 2 2 C2.33 2.99 2.66 3.98 3 5 C3.12781786 7.67394964 3.04391871 10.32095857 3 13 C2.67 13 2.34 13 2 13 C-0.28571429 4.57142857 -0.28571429 4.57142857 0 0 Z " fill="#2C2B28" transform="translate(353,1273)"/>
<path d="M0 0 C0.33 1.32 0.66 2.64 1 4 C1.66 4 2.32 4 3 4 C3 4.66 3 5.32 3 6 C0.69 6.33 -1.62 6.66 -4 7 C-3.6875 4.625 -3.6875 4.625 -3 2 C-2.01 1.34 -1.02 0.68 0 0 Z " fill="#717170" transform="translate(252,1134)"/>
<path d="M0 0 C0.99 0.33 1.98 0.66 3 1 C3.33 2.98 3.66 4.96 4 7 C2.35 6.01 0.7 5.02 -1 4 C-0.67 2.68 -0.34 1.36 0 0 Z " fill="#1D1D1C" transform="translate(473,993)"/>
<path d="M0 0 C0.66 0 1.32 0 2 0 C2 0.66 2 1.32 2 2 C3.32 2 4.64 2 6 2 C6 2.99 6 3.98 6 5 C6.99 5.33 7.98 5.66 9 6 C8.01 6.33 7.02 6.66 6 7 C2.76985216 4.84656811 1.24313463 3.72940389 0 0 Z " fill="#272726" transform="translate(247,1208)"/>
<path d="M0 0 C2.475 0.495 2.475 0.495 5 1 C5 2.32 5 3.64 5 5 C3.35 4.67 1.7 4.34 0 4 C0 2.68 0 1.36 0 0 Z " fill="#B1B0B2" transform="translate(341,1053)"/>
<path d="M0 0 C-0.66 1.98 -1.32 3.96 -2 6 C-2.99 6 -3.98 6 -5 6 C-5 5.34 -5 4.68 -5 4 C-5.66 3.67 -6.32 3.34 -7 3 C-2.25 0 -2.25 0 0 0 Z " fill="#222422" transform="translate(343,979)"/>
<path d="M0 0 C3.3 0.99 6.6 1.98 10 3 C10 3.66 10 4.32 10 5 C7.69 5 5.38 5 3 5 C2.67 4.01 2.34 3.02 2 2 C1.34 2 0.68 2 0 2 C0 1.34 0 0.68 0 0 Z " fill="#727270" transform="translate(436,967)"/>
<path d="M0 0 C3.26954202 0.56371414 4.82575883 1.49962266 7 4 C4.66666667 4 2.33333333 4 0 4 C0 2.68 0 1.36 0 0 Z " fill="#151617" transform="translate(462,982)"/>
<path d="M0 0 C0.33 0 0.66 0 1 0 C2.01911045 3.89114901 2.16782969 5.60596507 0.5625 9.375 C0.046875 10.24125 -0.46875 11.1075 -1 12 C-2.37520651 8.17998192 -1.74051523 4.92473073 -1 1 C-0.67 0.67 -0.34 0.34 0 0 Z " fill="#343433" transform="translate(316,1021)"/>
<path d="M0 0 C0.66 0.66 1.32 1.32 2 2 C2.99 2.33 3.98 2.66 5 3 C5.33 4.65 5.66 6.3 6 8 C5.01 7.67 4.02 7.34 3 7 C3 6.34 3 5.68 3 5 C2.01 4.67 1.02 4.34 0 4 C0 2.68 0 1.36 0 0 Z " fill="#1B1B19" transform="translate(367,1441)"/>
<path d="M0 0 C0.33 0 0.66 0 1 0 C1.25 6.625 1.25 6.625 -1 10 C-2.25 3.375 -2.25 3.375 0 0 Z " fill="#31312D" transform="translate(454,1319)"/>
<path d="M0 0 C0.99 0.33 1.98 0.66 3 1 C3 3.31 3 5.62 3 8 C2.01 7.67 1.02 7.34 0 7 C0 4.69 0 2.38 0 0 Z " fill="#DCDCD5" transform="translate(404,1220)"/>
<path d="M0 0 C0.33 0 0.66 0 1 0 C1 2.64 1 5.28 1 8 C0.01 8.495 0.01 8.495 -1 9 C-1.66 8.67 -2.32 8.34 -3 8 C-2.690625 7.236875 -2.38125 6.47375 -2.0625 5.6875 C-1.32106407 3.81210323 -0.63771783 1.91315348 0 0 Z " fill="#2C2D2B" transform="translate(267,1113)"/>
<path d="M0 0 C1.485 0.99 1.485 0.99 3 2 C2.6875 4.875 2.6875 4.875 2 8 C1.01 8.66 0.02 9.32 -1 10 C-0.67 6.7 -0.34 3.4 0 0 Z " fill="#C0C1C0" transform="translate(377,945)"/>
<path d="M0 0 C2.17854707 3.2678206 3.49760034 6.38058265 5 10 C4.01 10.495 4.01 10.495 3 11 C0 4.5 0 4.5 0 0 Z " fill="#D6D5D0" transform="translate(449,1414)"/>
<path d="M0 0 C0.33 0.99 0.66 1.98 1 3 C1.66 3 2.32 3 3 3 C2.67 4.98 2.34 6.96 2 9 C1.34 9 0.68 9 0 9 C0 6.03 0 3.06 0 0 Z " fill="#171615" transform="translate(412,1393)"/>
<path d="M0 0 C1.32 0.66 2.64 1.32 4 2 C0.535 3.485 0.535 3.485 -3 5 C-3 4.01 -3 3.02 -3 2 C-2.01 1.34 -1.02 0.68 0 0 Z " fill="#1A1A18" transform="translate(272,1210)"/>
<path d="M0 0 C0.99 0 1.98 0 3 0 C3 2.31 3 4.62 3 7 C2.34 6.67 1.68 6.34 1 6 C1 5.01 1 4.02 1 3 C0.34 3 -0.32 3 -1 3 C-0.67 2.01 -0.34 1.02 0 0 Z " fill="#0C0B0B" transform="translate(371,1393)"/>
<path d="M0 0 C0.99 0 1.98 0 3 0 C2.67 1.32 2.34 2.64 2 4 C-0.64 4 -3.28 4 -6 4 C-6 3.67 -6 3.34 -6 3 C-4.35 3 -2.7 3 -1 3 C-0.67 2.01 -0.34 1.02 0 0 Z " fill="#D4D4D3" transform="translate(475,1202)"/>
<path d="M0 0 C0.66 0.33 1.32 0.66 2 1 C0.35 2.98 -1.3 4.96 -3 7 C-3.66 5.68 -4.32 4.36 -5 3 C-2.625 1.4375 -2.625 1.4375 0 0 Z " fill="#242324" transform="translate(358,971)"/>
</svg>
