<?xml version="1.0" encoding="UTF-8"?>
<svg xmlns="http://www.w3.org/2000/svg" viewBox="0 0 200 110" width="200" height="110" preserveAspectRatio="xMidYMid meet">
<path d="M0 0 C5.5534603 1.11069206 7.03090702 2.75164585 10.3125 6.9375 C10.76689453 7.48857422 11.22128906 8.03964844 11.68945312 8.60742188 C15 12.70453477 15 12.70453477 15 15 C15.66 15 16.32 15 17 15 C17 15.66 17 16.32 17 17 C17.66 17 18.32 17 19 17 C20.39325954 18.55240341 21.71380128 20.17029985 23 21.8125 C26.90364621 26.6983136 30.97647046 31.33594758 35.25 35.90625 C39.31353398 40.47772573 43.12684627 45.26614544 47 50 C47.33 33.83 47.66 17.66 48 1 C50.31 1 52.62 1 55 1 C55 22.12 55 43.24 55 65 C53.35 65 51.7 65 50 65 C49.67 64.01 49.34 63.02 49 62 C48.34 62 47.68 62 47 62 C45.39365985 60.26608049 43.8624713 58.461909 42.375 56.625 C41.55773438 55.62726563 40.74046875 54.62953125 39.8984375 53.6015625 C38 51 38 51 38 49 C37.42507812 48.77183594 36.85015625 48.54367188 36.2578125 48.30859375 C33.39164651 46.64740758 31.90732233 44.67602152 29.875 42.0625 C26.62302921 37.97338822 23.28302181 34.03691182 19.75 30.1875 C10 19.55665888 10 19.55665888 10 17 C9.01 16.67 8.02 16.34 7 16 C6.9845388 16.89869057 6.9845388 16.89869057 6.96876526 17.8155365 C6.86093035 24.02810088 6.74631456 30.24051341 6.62768555 36.45288086 C6.58426261 38.77413773 6.54259316 41.09542808 6.50268555 43.41674805 C6.4451606 46.74538278 6.38141575 50.07384785 6.31640625 53.40234375 C6.29969376 54.44712387 6.28298126 55.49190399 6.26576233 56.56834412 C6.24581711 57.52926468 6.22587189 58.49018524 6.20532227 59.48022461 C6.18977798 60.33071884 6.1742337 61.18121307 6.15821838 62.05747986 C6 64 6 64 5 65 C3.35 65 1.7 65 0 65 C0 43.55 0 22.1 0 0 Z " fill="#000000" transform="translate(15,24)"/>
<path d="M0 0 C1.65 0 3.3 0 5 0 C13.79072358 20.26263222 13.79072358 20.26263222 17.6171875 30.484375 C19.86011546 36.18673422 22.32668248 41.79453349 24.79101562 47.40429688 C27.16386765 52.85566649 29.22704625 58.32448043 31 64 C30 65 30 65 26.68359375 65.0859375 C23 64 23 64 21.77001953 62.36816406 C20.72119829 60.15404366 19.86944931 57.9381287 19.0625 55.625 C18.76021484 54.84382813 18.45792969 54.06265625 18.14648438 53.2578125 C16.91046237 49.98417599 16 47.53046722 16 44 C2.635 44.495 2.635 44.495 -11 45 C-11.763125 47.02125 -12.52625 49.0425 -13.3125 51.125 C-17.67213115 62.67213115 -17.67213115 62.67213115 -20 65 C-21.66617115 65.04063832 -23.33388095 65.042721 -25 65 C-26.55254393 60.30483275 -24.59148943 57.18572507 -22.5625 52.9375 C-21.80949466 51.30416958 -21.05824434 49.67002912 -20.30859375 48.03515625 C-19.72827393 46.77856201 -19.72827393 46.77856201 -19.13623047 45.49658203 C-17.38789158 41.65504498 -15.75123283 37.76947626 -14.125 33.875 C-13.64752319 32.73538818 -13.64752319 32.73538818 -13.16040039 31.57275391 C-12.10466629 29.04944333 -11.05212156 26.52481894 -10 24 C-9.56268555 22.95183105 -9.12537109 21.90366211 -8.67480469 20.82373047 C-5.77948153 13.8840343 -2.88798551 6.94275282 0 0 Z M1 13 C0.60167969 14.0621875 0.20335937 15.124375 -0.20703125 16.21875 C-2.8046875 23.14583333 -5.40234375 30.07291667 -8 37 C-1.4 37 5.2 37 12 37 C10.96767138 32.87068554 9.56323009 28.97315593 8.0625 25 C7.79759766 24.2884375 7.53269531 23.576875 7.25976562 22.84375 C5.99158419 19.47032445 4.71372805 16.17908971 3 13 C2.34 13 1.68 13 1 13 Z " fill="#000000" transform="translate(152,24)"/>
<path d="M0 0 C3.125 -0.5625 3.125 -0.5625 7 0 C9.63900223 2.56075689 11.21424001 5.81285886 13 9 C13.82709606 10.39278891 14.65813394 11.78324132 15.4921875 13.171875 C19.19092376 19.35703247 22.86051665 25.50628037 26 32 C29.38323481 28.04398277 31.84056266 23.91895478 34.3125 19.375 C35.10651332 17.95485606 35.90209765 16.53558939 36.69921875 15.1171875 C38.11641189 12.58979138 39.51265578 10.05502214 40.89453125 7.5078125 C42.45889508 4.7887151 43.89522006 2.32633572 46 0 C49.9375 -0.6875 49.9375 -0.6875 53 0 C51.49968619 4.0690329 49.55032435 7.68918215 47.375 11.4375 C46.6587612 12.67702962 45.94261821 13.91661461 45.2265625 15.15625 C44.85950195 15.78917969 44.49244141 16.42210938 44.11425781 17.07421875 C42.31280738 20.18768084 40.5321705 23.31297594 38.75 26.4375 C36.84716623 29.76745909 34.99154132 33.01222814 32.80859375 36.16796875 C30.0205486 41.04603221 30.36373813 46.39593635 30.3125 51.875 C30.2706301 53.95580698 30.22525662 56.03654747 30.17578125 58.1171875 C30.16458252 59.03097168 30.15338379 59.94475586 30.1418457 60.88623047 C30 63 30 63 29 64 C26.5 64.125 26.5 64.125 24 64 C23 63 23 63 22.92163086 60.98144531 C22.94302124 59.66805176 22.94302124 59.66805176 22.96484375 58.328125 C22.96157472 45.2301958 22.06981491 37.56196363 14 27 C12.89958776 25.10484558 11.83492222 23.18834212 10.8125 21.25 C10.338125 20.36570312 9.86375 19.48140625 9.375 18.5703125 C8.92125 17.72210938 8.4675 16.87390625 8 16 C4.69560641 9.97229148 4.69560641 9.97229148 1.1875 4.0625 C0 2 0 2 0 0 Z " fill="#000000" transform="translate(80,25)"/>
</svg>
